<svg width="64" height="48" viewBox="0 0 64 48" fill="none" xmlns="http://www.w3.org/2000/svg">
<path fill-rule="evenodd" clip-rule="evenodd" d="M1.57895 7H28.4211C29.2931 7 30 7.68474 30 8.52941V16.1765C30 17.0211 29.2931 17.7059 28.4211 17.7059H1.57895C0.706919 17.7059 0 17.0211 0 16.1765V8.52941C0 7.68474 0.706919 7 1.57895 7ZM4.82764 13.6807L4.36804 15.0054H3.56664L5.36751 10H6.24005L8.04169 15.0054H7.23951L6.78299 13.6807H4.82764ZM5.78581 10.9092L5.0471 13.0453H6.56275L5.82481 10.9092H5.78581ZM8.76424 15.0054H11.7871V14.3553H9.51901V10H8.76424V15.0054ZM13.4038 15.0054H12.649V10H14.4331C15.5962 10 16.1659 10.699 16.1659 11.6204C16.1659 12.5442 15.5916 13.2457 14.4308 13.2457H13.4038V15.0054ZM13.4038 10.6477V12.6053H14.3619C15.0999 12.6053 15.4058 12.1874 15.4058 11.6204C15.4058 11.0534 15.0999 10.6477 14.352 10.6477H13.4038ZM17.0514 15.0054H17.8062V12.8229H20.3014V15.0054H21.0592V10H20.3014V12.1752H17.8062V10H17.0514V15.0054ZM23.0413 13.6807L22.5817 15.0054H21.7803L23.5812 10H24.4537L26.2554 15.0054H25.4539L24.9967 13.6807H23.0413ZM23.9995 10.9092L23.2615 13.0453H24.7764L24.0385 10.9092H23.9995Z" fill="#EF4D5A"/>
<path d="M14.5011 26.3542C14.3352 26.2961 14.1644 26.2456 14.0059 26.2002C13.637 26.1068 13.2622 26.0393 12.8842 25.9982C12.6095 25.9688 12.3334 25.9545 12.0571 25.9553C11.9366 25.9553 11.8153 25.9553 11.6931 25.9553C9.62517 26.0514 7.67488 26.9636 6.25445 28.4991C4.83402 30.0345 4.05475 32.0729 4.08132 34.1834C4.08132 34.2743 4.08132 34.3677 4.08132 34.4586C4.08443 34.5208 4.07246 34.5828 4.04647 34.6391C4.02047 34.6955 3.98125 34.7444 3.93228 34.7816C3.88331 34.8188 3.8261 34.8431 3.76571 34.8524C3.70533 34.8617 3.64363 34.8556 3.58608 34.8348C2.30592 34.3622 1.12413 33.6488 0.102081 32.7317C0.0474862 32.6731 0.0127231 32.5982 0.0028761 32.5179C-0.00697086 32.4377 0.00861528 32.3564 0.0473551 32.2859C0.0860948 32.2153 0.145956 32.1593 0.218179 32.1259C0.290402 32.0926 0.371198 32.0837 0.448748 32.1005C1.17118 32.3075 1.93489 32.3127 2.65999 32.1156C2.69459 32.1049 2.72646 32.0866 2.75336 32.0619C2.78026 32.0373 2.80154 32.0069 2.8157 31.973C2.82986 31.939 2.83656 31.9024 2.83533 31.8655C2.83409 31.8287 2.82496 31.7925 2.80856 31.7597C2.30332 30.8375 2.01287 29.8093 1.95966 28.7544C1.90645 27.6995 2.09191 26.6463 2.50169 25.6762C2.91148 24.706 3.53461 23.845 4.32291 23.1597C5.1112 22.4743 6.04353 21.9831 7.0478 21.7238C7.68844 21.5598 8.34908 21.4917 9.00894 21.5218C10.0563 21.5714 11.0781 21.8687 11.9934 22.3901C12.9088 22.9115 13.6927 23.6428 14.2832 24.5263C14.5593 24.9422 14.7886 25.3885 14.9667 25.8568C14.9936 25.9244 15.001 25.9985 14.9879 26.0702C14.9748 26.1419 14.9417 26.2083 14.8927 26.2615C14.8437 26.3147 14.7808 26.3524 14.7113 26.3702C14.6419 26.3879 14.569 26.385 14.5011 26.3618V26.3542Z" fill="black"/>
<path d="M18.1186 37.5888C18.084 37.578 18.0521 37.5597 18.0252 37.5351C17.9983 37.5104 17.9771 37.4801 17.9629 37.4461C17.9487 37.4122 17.942 37.3755 17.9433 37.3387C17.9445 37.3018 17.9536 37.2657 17.97 37.2328C18.4733 36.3107 18.762 35.283 18.8137 34.2291C18.8655 33.1752 18.6789 32.1232 18.2685 31.1545C17.858 30.1858 17.2347 29.3262 16.4466 28.6422C15.6586 27.9582 14.7268 27.468 13.7234 27.2096C12.3817 26.864 10.9682 26.9473 9.67444 27.4481C8.38069 27.949 7.26916 28.8431 6.49043 30.0095C5.90752 30.8817 5.52924 31.8789 5.38483 32.924C5.24043 33.9691 5.33378 35.034 5.65766 36.0365C5.98155 37.0389 6.52728 37.9519 7.25264 38.7048C7.97799 39.4578 8.86353 40.0305 9.84071 40.3786C11.6717 41.0331 13.6406 41.1785 15.545 40.8C17.4494 40.4215 19.2206 39.5327 20.6765 38.225C20.7388 38.1677 20.7803 38.0907 20.7945 38.0064C20.8086 37.9221 20.7946 37.8354 20.7546 37.7603C20.7146 37.6851 20.6509 37.6258 20.5739 37.592C20.4969 37.5581 20.4109 37.5517 20.3299 37.5736C19.6076 37.7819 18.8436 37.7871 18.1186 37.5888Z" fill="#EF4D5A"/>
<path d="M28.2739 38.934C27.6627 38.9414 27.0548 38.8415 26.4768 38.6387C25.9528 38.455 25.4686 38.1696 25.051 37.7982C24.6521 37.4412 24.3301 37.0038 24.1054 36.5135C23.8789 36.0085 23.7648 35.4586 23.7712 34.9033C23.7559 34.1346 23.9823 33.381 24.4173 32.7529C24.8788 32.1088 25.5047 31.606 26.2268 31.2991C27.0893 30.9349 28.0163 30.7562 28.9497 30.7742C29.4483 30.7733 29.9457 30.8224 30.4349 30.9206C30.9157 31.0185 31.387 31.1595 31.8434 31.342V30.5849C31.8722 29.932 31.6532 29.293 31.232 28.8005C31.0192 28.5705 30.7602 28.3903 30.4726 28.2723C30.185 28.1542 29.8757 28.101 29.5661 28.1165C29.06 28.1124 28.5628 28.2523 28.1304 28.5203C27.7073 28.7787 27.3846 29.1781 27.2169 29.651L24.2217 29.0402C24.3927 28.3025 24.7523 27.6241 25.2639 27.0741C25.7987 26.5025 26.4491 26.0564 27.1699 25.7667C27.9473 25.4527 28.7769 25.295 29.6131 25.3023C30.3729 25.293 31.128 25.4256 31.8409 25.6935C32.4869 25.9378 33.0755 26.3173 33.5688 26.8076C34.0621 27.298 34.4491 27.8883 34.7049 28.5405C34.9776 29.244 35.1121 29.9951 35.101 30.7515V38.934H32.1058L32.0117 37.0511C31.6518 37.6282 31.1466 38.0963 30.5488 38.4065C29.8455 38.773 29.0635 38.9543 28.2739 38.934ZM27.0758 34.7317C27.0725 34.9503 27.121 35.1666 27.2171 35.3621C27.3132 35.5576 27.4541 35.7266 27.6279 35.8548C28.0518 36.1657 28.5668 36.3205 29.0883 36.294C29.58 36.3025 30.0659 36.1854 30.5018 35.9532C30.9093 35.7365 31.2515 35.4112 31.4919 35.0118C31.7304 34.611 31.8547 34.1505 31.8508 33.6817V33.558C31.4858 33.4083 31.109 33.2901 30.7245 33.2047C30.331 33.1166 29.9294 33.0717 29.5265 33.0709C28.9008 33.0383 28.2798 33.1955 27.7417 33.5227C27.5369 33.6474 27.3676 33.8246 27.2508 34.0367C27.134 34.2488 27.0737 34.4884 27.0758 34.7317Z" fill="#EF4D5A"/>
<path d="M42.1673 38.9347C41.3365 38.9457 40.5113 38.7959 39.7353 38.4933C39.0391 38.2211 38.41 37.7966 37.8922 37.2497C37.3921 36.7152 37.0337 36.0598 36.8506 35.3452L39.8689 34.6868C40.0144 35.1735 40.318 35.5952 40.7299 35.8825C41.1682 36.1819 41.6868 36.3353 42.2143 36.3214C42.6873 36.3413 43.1551 36.2137 43.5552 35.9556C43.7217 35.8488 43.8579 35.6996 43.9503 35.5226C44.0427 35.3456 44.0882 35.147 44.0822 34.9466C44.0824 34.7703 44.0398 34.5968 43.9582 34.4414C43.8766 34.286 43.7586 34.1536 43.6146 34.0561C43.1453 33.7605 42.6185 33.5728 42.0708 33.5062L41.4003 33.3851C40.0281 33.1413 38.9865 32.6856 38.2756 32.0179C37.9288 31.698 37.6539 31.3053 37.4698 30.8668C37.2858 30.4284 37.1969 29.9545 37.2093 29.4777C37.1961 28.71 37.4136 27.9564 37.8328 27.3184C38.2684 26.6751 38.8669 26.1643 39.5646 25.8402C40.3606 25.4697 41.228 25.2861 42.1029 25.3029C42.8923 25.2929 43.6761 25.4385 44.4112 25.7318C45.0717 25.9937 45.6643 26.4072 46.143 26.9401C46.6125 27.4757 46.9411 28.1241 47.098 28.8244L44.1044 29.4601C43.967 29.0074 43.6956 28.6092 43.3276 28.3199C42.9668 28.0399 42.5242 27.8915 42.0708 27.8986C41.6351 27.881 41.2058 28.0095 40.8486 28.2644C40.7006 28.3675 40.5797 28.5061 40.4965 28.6679C40.4132 28.8298 40.3702 29.0099 40.3711 29.1927C40.3737 29.3578 40.4176 29.5195 40.4985 29.6625C40.5795 29.8055 40.6949 29.9251 40.8338 30.01C41.3242 30.2939 41.8664 30.4725 42.427 30.5347L43.0975 30.6583C44.4533 30.9021 45.4907 31.3621 46.2098 32.0381C46.5637 32.3635 46.8437 32.7636 47.0304 33.2106C47.2172 33.6575 47.3061 34.1406 47.291 34.6262C47.2972 35.2251 47.1703 35.8175 46.9199 36.3592C46.6644 36.8875 46.3008 37.3537 45.8536 37.7264C45.37 38.1269 44.8181 38.4331 44.2257 38.6295C43.5599 38.8425 42.865 38.9455 42.1673 38.9347Z" fill="#EF4D5A"/>
<path d="M49.3037 38.9255V20H52.6423V31.1458L58.0054 25.2966H62.0023L56.0626 31.6177L62.0023 38.9356H57.6886L52.6423 32.3874V38.9255H49.3037Z" fill="#EF4D5A"/>
</svg>
