<svg
  width="14"
  height="16"
  viewBox="0 0 14 16"
  fill="none"
  xmlns="http://www.w3.org/2000/svg"
>
  <title>Lion Head Symbol</title>
  <path
    fill-rule="evenodd"
    clip-rule="evenodd"
    d="M6.43149 4.24758C6.43149 4.24758 8.53224 5.85711 5.415 9.09521C2.29777 12.3333 4.7083 14.4286 4.7083 14.4286C4.7083 14.4286 4.14681 14.9619 4.46628 16C4.46628 16 3.16974 15.2793 2.17835 14.0571C0.744691 12.2897 -0.130884 9.58496 3.80477 7.42854C3.80477 7.42854 6.40245 6.14282 5.87968 4.42853C5.87968 4.42853 6.19915 4.44758 6.43149 4.24758ZM7.0317 3.70792C10.5555 5.15554 10.0005 7.60633 7.89655 9.66348C6.60575 10.9714 7.00591 12.3809 7.00591 12.3809C7.00591 12.3809 5.43115 13.346 4.88902 14.1841C4.88902 14.1841 2.61027 12.2747 5.76673 9.10473C8.86463 5.99364 6.72192 4.10156 6.72192 4.10156L6.75943 4.06505C6.82841 3.996 6.97362 3.84123 7.0317 3.70792ZM10.3361 10.8063L7.26404 12.2666C7.26404 12.2666 6.86392 10.9968 8.3483 9.5111C9.83268 8.02538 11.2654 5.24442 7.16077 3.41584C7.16077 3.41584 7.23825 3.03489 6.96719 2.84441C11.7043 2.70472 13.3953 8.29204 10.3361 10.8063ZM11.3429 10.1968C11.3429 10.1968 12.2496 8.92467 12.1432 7.21267C12.0786 4.91426 10.2716 2.45075 6.3863 2.59045C10.1812 -0.571463 16.7642 6.48886 11.3429 10.1968ZM3.08192 2.8571C3.08192 3.32377 3.87575 3.26662 3.87575 2.8571H6.21851C6.68319 2.8571 7.01234 3.08567 6.70256 3.6571C6.39277 4.22853 5.46341 4.13329 5.46341 4.13329C6.08298 5.40949 5.09554 6.64758 3.77894 6.64758H2.3849C1.2232 6.64758 1.10703 7.16187 1.10703 7.16187C0.371283 6.15234 0.932772 5.37139 0.932772 5.37139C0.932772 5.37139 1.05862 5.86663 2.00734 5.86663C2.95607 5.86663 3.13032 4.96186 2.1816 4.96186H1.64915C1.19415 4.96186 0.91341 5.19996 0.91341 5.19996C0.91341 5.19996 0.845644 5.03806 0.671389 4.57139C0.497134 4.10472 0.681069 3.92377 0.80692 3.8571C0.932771 3.79043 1.20384 3.74281 1.20384 3.74281V3.52377C0.981176 3.54281 0.758517 3.67615 0.758517 3.67615C0.777878 2.8571 1.76532 2.8571 1.76532 2.8571H3.08192ZM7.03168 0.799988C8.58147 0.799988 9.62615 1.30791 10.4716 1.98727C10.4716 1.98727 8.19339 0.596826 5.94743 2.55237H2.66884C2.66884 2.55237 3.08837 1.81588 4.06288 1.81588C4.83092 1.81588 5.00517 1.42852 5.00517 1.42852L5.01346 1.41509C5.07379 1.32396 5.48782 0.799988 7.03168 0.799988Z"
    fill="#DB0000"
  />
</svg>
