<svg width="104" height="40" viewBox="0 0 104 40" fill="none" xmlns="http://www.w3.org/2000/svg">
<path fill-rule="evenodd" clip-rule="evenodd" d="M76.4708 3H102.471C103.315 3 104 3.68474 104 4.52941V12.1765C104 13.0211 103.315 13.7059 102.471 13.7059H76.4708C75.6261 13.7059 74.9414 13.0211 74.9414 12.1765V4.52941C74.9414 3.68474 75.6261 3 76.4708 3ZM79.769 9.32206L79.3094 10.6467H78.508L80.3089 5.64137H81.1815L82.9831 10.6467H82.1809L81.7244 9.32206H79.769ZM80.7272 6.55055L79.9885 8.68662H81.5042L80.7662 6.55055H80.7272ZM83.7057 10.6467H86.7285V9.99661H84.4604V5.64137H83.7057V10.6467ZM88.3452 10.6467H87.5904V5.64137H89.3745C90.5376 5.64137 91.1073 6.34036 91.1073 7.26175C91.1073 8.18559 90.533 8.88703 89.3722 8.88703H88.3452V10.6467ZM88.3452 6.28904V8.24669H89.3034C90.0413 8.24669 90.3472 7.82877 90.3472 7.26175C90.3472 6.69475 90.0413 6.28904 89.2934 6.28904H88.3452ZM91.9928 10.6467H92.7476V8.46421H95.2428V10.6467H96.0006V5.64137H95.2428V7.81655H92.7476V5.64137H91.9928V10.6467ZM97.9827 9.32206L97.5231 10.6467H96.7217L98.5226 5.64137H99.3951L101.197 10.6467H100.395L99.9381 9.32206H97.9827ZM98.9409 6.55055L98.2029 8.68662H99.7178L98.9799 6.55055H98.9409Z" fill="#EF4D5A"/>
<path d="M14.5011 20.0837C14.3352 20.0256 14.1644 19.9751 14.0059 19.9297C13.637 19.8363 13.2622 19.7688 12.8842 19.7277C12.6095 19.6983 12.3334 19.6839 12.0571 19.6848C11.9366 19.6848 11.8153 19.6848 11.6931 19.6848C9.62517 19.7809 7.67488 20.6931 6.25445 22.2285C4.83402 23.764 4.05475 25.8024 4.08132 27.9129C4.08132 28.0038 4.08132 28.0972 4.08132 28.1881C4.08444 28.2503 4.07246 28.3123 4.04647 28.3686C4.02047 28.425 3.98125 28.4739 3.93228 28.5111C3.88331 28.5483 3.8261 28.5726 3.76571 28.5819C3.70533 28.5912 3.64363 28.5851 3.58608 28.5643C2.30592 28.0917 1.12413 27.3783 0.102081 26.4612C0.0474862 26.4025 0.0127231 26.3277 0.0028761 26.2474C-0.00697086 26.1672 0.00861528 26.0859 0.0473551 26.0154C0.0860948 25.9448 0.145956 25.8888 0.218179 25.8554C0.290402 25.8221 0.371198 25.8132 0.448748 25.83C1.17118 26.037 1.93489 26.0422 2.65999 25.8451C2.69459 25.8344 2.72646 25.8161 2.75336 25.7914C2.78026 25.7668 2.80154 25.7364 2.8157 25.7025C2.82986 25.6685 2.83656 25.6319 2.83533 25.595C2.83409 25.5581 2.82496 25.522 2.80856 25.4891C2.30332 24.567 2.01287 23.5387 1.95966 22.4839C1.90645 21.429 2.09191 20.3758 2.50169 19.4057C2.91148 18.4355 3.53461 17.5745 4.32291 16.8892C5.1112 16.2038 6.04353 15.7125 7.0478 15.4533C7.68844 15.2893 8.34908 15.2212 9.00894 15.2513C10.0563 15.3009 11.0781 15.5982 11.9934 16.1196C12.9088 16.641 13.6927 17.3723 14.2832 18.2558C14.5593 18.6717 14.7886 19.118 14.9667 19.5863C14.9936 19.6539 15.001 19.728 14.9879 19.7997C14.9748 19.8714 14.9417 19.9378 14.8927 19.991C14.8437 20.0442 14.7808 20.0819 14.7113 20.0996C14.6419 20.1174 14.569 20.1145 14.5011 20.0912V20.0837Z" fill="black"/>
<path d="M18.1186 31.5215C18.084 31.5108 18.0521 31.4924 18.0252 31.4678C17.9983 31.4432 17.9771 31.4128 17.9629 31.3789C17.9487 31.3449 17.942 31.3083 17.9433 31.2714C17.9445 31.2345 17.9536 31.1984 17.97 31.1655C18.4733 30.2435 18.762 29.2158 18.8137 28.1618C18.8655 27.1079 18.6789 26.056 18.2685 25.0872C17.858 24.1185 17.2347 23.2589 16.4466 22.5749C15.6586 21.8909 14.7268 21.4008 13.7234 21.1423C12.3817 20.7968 10.9682 20.88 9.67444 21.3809C8.38069 21.8817 7.26916 22.7759 6.49043 23.9422C5.90752 24.8144 5.52924 25.8116 5.38483 26.8567C5.24043 27.9018 5.33378 28.9668 5.65766 29.9692C5.98155 30.9716 6.52728 31.8846 7.25264 32.6376C7.978 33.3905 8.86353 33.9632 9.84071 34.3114C11.6717 34.9658 13.6406 35.1113 15.545 34.7328C17.4494 34.3543 19.2206 33.4655 20.6765 32.1578C20.7388 32.1004 20.7803 32.0235 20.7945 31.9392C20.8086 31.8549 20.7946 31.7682 20.7546 31.693C20.7146 31.6178 20.6509 31.5586 20.5739 31.5247C20.4969 31.4909 20.4109 31.4844 20.3299 31.5064C19.6076 31.7146 18.8436 31.7198 18.1186 31.5215V31.5215Z" fill="#EF4D5A"/>
<path d="M68.1918 32.2965C67.4046 32.2996 66.6263 32.1272 65.9112 31.7916C65.2116 31.4657 64.5854 30.9965 64.0714 30.413C63.5409 29.8108 63.1268 29.1118 62.8507 28.3528C62.5535 27.538 62.4049 26.6747 62.4124 25.8054C62.4083 24.9103 62.5653 24.0221 62.8754 23.1847C63.1607 22.4074 63.5913 21.694 64.1432 21.0841C64.6759 20.4514 65.3212 19.9271 66.0449 19.539C66.7837 19.1982 67.5865 19.0259 68.3973 19.034C69.1736 19.0207 69.9421 19.1937 70.6408 19.539C71.3149 19.9336 71.8844 20.49 72.2998 21.1599L72.3716 19.0315H75.504V31.2033C75.5163 32.1454 75.355 33.0814 75.0286 33.9628C74.7315 34.7635 74.2713 35.4909 73.6785 36.0971C73.0857 36.7033 72.3736 37.1746 71.5891 37.4798C70.7378 37.8136 69.8319 37.979 68.9198 37.9671C68.0397 37.9799 67.1651 37.8232 66.3421 37.505C65.6013 37.2136 64.9228 36.7789 64.3438 36.225C63.7777 35.683 63.3217 35.0327 63.0017 34.3112L66.2703 33.4907C66.5498 33.9583 66.9397 34.3471 67.4044 34.6218C67.8989 34.8965 68.4539 35.0383 69.0171 35.0339C69.5803 35.0294 70.1331 34.8789 70.6234 34.5965C71.0908 34.3031 71.4675 33.8814 71.7105 33.3796C71.9804 32.8104 72.1136 32.1838 72.0992 31.5517V30.3726C71.6605 30.9694 71.0883 31.4506 70.4303 31.7764C69.7344 32.1262 68.9676 32.3043 68.1918 32.2965V32.2965ZM69.0188 29.2138C69.584 29.224 70.1395 29.0642 70.616 28.7543C71.0837 28.4425 71.4655 28.014 71.7253 27.5096C71.9988 26.9586 72.1413 26.3497 72.1413 25.7322C72.1413 25.1146 71.9988 24.5057 71.7253 23.9547C71.4647 23.4515 71.083 23.0241 70.616 22.7126C70.1359 22.4121 69.5835 22.253 69.0201 22.253C68.4567 22.253 67.9043 22.4121 67.4242 22.7126C66.9566 23.0234 66.5747 23.451 66.3149 23.9547C66.0414 24.5057 65.8988 25.1146 65.8988 25.7322C65.8988 26.3497 66.0414 26.9586 66.3149 27.5096C66.5739 28.0146 66.9559 28.4432 67.4242 28.7543C67.8999 29.0639 68.4546 29.2237 69.0188 29.2138V29.2138Z" fill="#EF4D5A"/>
<path d="M83.9905 32.6644C83.0948 32.6768 82.2059 32.505 81.3769 32.1592C80.5911 31.8299 79.8788 31.3419 79.2828 30.7246C78.6868 30.1074 78.2194 29.3736 77.9087 28.5674C77.5728 27.7043 77.4045 26.783 77.4132 25.8545C77.4012 24.9291 77.5696 24.0104 77.9087 23.1518C78.235 22.3451 78.7121 21.6107 79.3133 20.9897C79.9206 20.3622 80.6473 19.8679 81.4487 19.5373C82.2905 19.1904 83.1917 19.0187 84.0995 19.0321C84.9943 19.0195 85.8824 19.1914 86.7106 19.5373C87.493 19.8662 88.2024 20.3524 88.7965 20.9669C89.3907 21.5838 89.8597 22.3143 90.1763 23.1165C90.8346 24.8601 90.8302 26.7915 90.164 28.532C89.8405 29.3434 89.3641 30.0823 88.7618 30.7068C88.1604 31.3248 87.4424 31.812 86.6511 32.139C85.8077 32.4941 84.9029 32.6728 83.9905 32.6644V32.6644ZM84.0375 29.5828C84.6129 29.594 85.1783 29.4285 85.6602 29.1079C86.1482 28.773 86.5413 28.313 86.7998 27.7742C87.0755 27.1738 87.2185 26.5188 87.2185 25.8558C87.2185 25.1928 87.0755 24.5379 86.7998 23.9374C86.5423 23.3945 86.1493 22.9302 85.6602 22.5911C85.1738 22.2727 84.6081 22.1035 84.0301 22.1035C83.4522 22.1035 82.8864 22.2727 82.4 22.5911C81.9132 22.9274 81.5205 23.387 81.2605 23.9248C80.9847 24.5252 80.8418 25.1801 80.8418 25.8432C80.8418 26.5062 80.9847 27.1611 81.2605 27.7616C81.5198 28.2998 81.9127 28.7596 82.4 29.0953C82.8849 29.423 83.4559 29.593 84.0375 29.5828V29.5828Z" fill="#EF4D5A"/>
<path d="M95.6924 32.6651L90.8613 19.0315H94.5905L97.4678 28.9866L100.392 19.0315H104L99.1739 32.6651H95.6924Z" fill="#EF4D5A"/>
<path d="M28.2739 32.6634C27.6627 32.6709 27.0548 32.571 26.4768 32.3682C25.9528 32.1845 25.4686 31.8991 25.051 31.5277C24.6521 31.1707 24.3301 30.7333 24.1054 30.243C23.8789 29.738 23.7648 29.1881 23.7712 28.6328C23.7559 27.864 23.9823 27.1105 24.4173 26.4824C24.8788 25.8383 25.5047 25.3355 26.2268 25.0286C27.0893 24.6644 28.0163 24.4856 28.9497 24.5037C29.4483 24.5028 29.9457 24.5519 30.4349 24.65C30.9157 24.748 31.387 24.889 31.8434 25.0715V24.3144C31.8722 23.6615 31.6532 23.0225 31.232 22.53C31.0192 22.3 30.7602 22.1198 30.4726 22.0018C30.185 21.8837 29.8757 21.8305 29.5661 21.846C29.06 21.8419 28.5628 21.9818 28.1304 22.2498C27.7073 22.5082 27.3846 22.9076 27.2169 23.3805L24.2217 22.7697C24.3927 22.032 24.7523 21.3536 25.2639 20.8036C25.7987 20.232 26.4491 19.7859 27.1699 19.4962C27.9473 19.1822 28.7769 19.0245 29.6131 19.0318C30.3729 19.0225 31.128 19.1551 31.8409 19.423C32.4869 19.6673 33.0755 20.0468 33.5688 20.5371C34.0621 21.0275 34.4491 21.6178 34.7049 22.27C34.9776 22.9735 35.1121 23.7246 35.101 24.4809V32.6634H32.1058L32.0117 30.7806C31.6518 31.3577 31.1466 31.8258 30.5488 32.136C29.8455 32.5025 29.0635 32.6838 28.2739 32.6634ZM27.0758 28.4611C27.0725 28.6798 27.121 28.8961 27.2171 29.0916C27.3132 29.2871 27.4541 29.4561 27.6279 29.5843C28.0518 29.8952 28.5668 30.05 29.0883 30.0234C29.58 30.032 30.0659 29.9149 30.5018 29.6827C30.9093 29.466 31.2515 29.1407 31.4919 28.7413C31.7304 28.3405 31.8547 27.8799 31.8508 27.4112V27.2875C31.4858 27.1378 31.109 27.0196 30.7245 26.9342C30.331 26.8461 29.9294 26.8012 29.5265 26.8004C28.9008 26.7678 28.2798 26.925 27.7417 27.2522C27.5369 27.3769 27.3676 27.5541 27.2508 27.7662C27.134 27.9783 27.0737 28.2179 27.0758 28.4611V28.4611Z" fill="black"/>
<path d="M42.1673 32.6642C41.3365 32.6752 40.5113 32.5254 39.7353 32.2228C39.0391 31.9506 38.41 31.5261 37.8922 30.9792C37.3921 30.4447 37.0337 29.7893 36.8506 29.0747L39.8689 28.4163C40.0144 28.903 40.318 29.3247 40.7299 29.612C41.1682 29.9114 41.6868 30.0648 42.2143 30.0509C42.6873 30.0708 43.1551 29.9432 43.5552 29.6851C43.7217 29.5783 43.8579 29.4291 43.9503 29.2521C44.0427 29.0751 44.0882 28.8765 44.0822 28.6761C44.0824 28.4998 44.0398 28.3263 43.9582 28.1709C43.8766 28.0155 43.7586 27.8831 43.6146 27.7856C43.1453 27.49 42.6185 27.3023 42.0708 27.2357L41.4003 27.1146C40.0281 26.8708 38.9865 26.4151 38.2756 25.7474C37.9288 25.4275 37.6539 25.0348 37.4698 24.5963C37.2858 24.1579 37.1969 23.684 37.2093 23.2072C37.1961 22.4395 37.4136 21.6859 37.8328 21.0479C38.2684 20.4046 38.8669 19.8938 39.5646 19.5697C40.3606 19.1992 41.228 19.0156 42.1029 19.0324C42.8923 19.0224 43.6761 19.168 44.4112 19.4613C45.0718 19.7232 45.6643 20.1367 46.143 20.6696C46.6125 21.2052 46.9411 21.8536 47.098 22.5539L44.1044 23.1896C43.967 22.7369 43.6956 22.3387 43.3276 22.0494C42.9668 21.7694 42.5242 21.621 42.0708 21.6281C41.6351 21.6105 41.2058 21.739 40.8486 21.9939C40.7006 22.097 40.5797 22.2356 40.4965 22.3974C40.4132 22.5593 40.3702 22.7394 40.3711 22.9222C40.3737 23.0873 40.4176 23.249 40.4985 23.392C40.5795 23.535 40.6949 23.6546 40.8338 23.7395C41.3242 24.0234 41.8664 24.202 42.427 24.2642L43.0975 24.3878C44.4533 24.6316 45.4907 25.0916 46.2098 25.7676C46.5637 26.093 46.8437 26.4931 47.0304 26.94C47.2172 27.387 47.3061 27.8701 47.291 28.3557C47.2972 28.9546 47.1703 29.547 46.9199 30.0887C46.6644 30.617 46.3008 31.0832 45.8536 31.4559C45.37 31.8564 44.8181 32.1626 44.2257 32.359C43.5599 32.572 42.865 32.675 42.1673 32.6642V32.6642Z" fill="black"/>
<path d="M49.3037 32.655V13.7295H52.6423V24.8753L58.0054 19.0261H62.0023L56.0626 25.3472L62.0023 32.6651H57.6886L52.6423 26.1169V32.655H49.3037Z" fill="black"/>
</svg>
