<svg width="132" height="32" viewBox="0 0 132 32" fill="none" xmlns="http://www.w3.org/2000/svg">
<path d="M18.4053 8.90979C18.1947 8.83751 17.9779 8.77465 17.7767 8.71808C17.3085 8.60182 16.8328 8.51782 16.353 8.46665C16.0043 8.43004 15.6539 8.41221 15.3033 8.41322C15.1503 8.41322 14.9963 8.41322 14.8413 8.41322C12.2166 8.53292 9.74119 9.66843 7.93834 11.5798C6.13549 13.4911 5.14641 16.0286 5.18014 18.6558C5.18014 18.7689 5.18014 18.8852 5.18014 18.9984C5.18409 19.0758 5.1689 19.153 5.1359 19.2231C5.1029 19.2932 5.05313 19.3541 4.99097 19.4005C4.92882 19.4468 4.8562 19.477 4.77956 19.4886C4.70291 19.5001 4.62461 19.4926 4.55157 19.4667C2.92675 18.8783 1.42678 17.9903 0.129564 16.8487C0.060271 16.7757 0.0161485 16.6824 0.00365043 16.5826C-0.00884763 16.4827 0.0109348 16.3815 0.0601045 16.2937C0.109274 16.2059 0.185251 16.1361 0.276919 16.0946C0.368588 16.0531 0.471136 16.042 0.569565 16.0629C1.4865 16.3206 2.45583 16.3271 3.37614 16.0818C3.42005 16.0684 3.4605 16.0456 3.49465 16.0149C3.52879 15.9842 3.5558 15.9464 3.57377 15.9042C3.59175 15.862 3.60025 15.8163 3.59868 15.7704C3.59712 15.7245 3.58552 15.6796 3.56471 15.6387C2.92345 14.4908 2.55479 13.2108 2.48726 11.8976C2.41972 10.5845 2.65511 9.27341 3.17523 8.06579C3.69534 6.85816 4.48624 5.78635 5.48677 4.93322C6.4873 4.08009 7.67064 3.46852 8.94529 3.14579C9.7584 2.94161 10.5969 2.85692 11.4344 2.89436C12.7638 2.95611 14.0606 3.32614 15.2225 3.97522C16.3843 4.62431 17.3792 5.53466 18.1287 6.63436C18.4791 7.15214 18.7701 7.70773 18.9961 8.29065C19.0304 8.3748 19.0397 8.46699 19.0231 8.55629C19.0064 8.64559 18.9645 8.72825 18.9023 8.79443C18.8401 8.86062 18.7602 8.90756 18.6721 8.92968C18.584 8.9518 18.4914 8.94817 18.4053 8.91922V8.90979Z" fill="white"/>
<path d="M22.9967 23.1478C22.9528 23.1345 22.9124 23.1116 22.8782 23.081C22.8441 23.0503 22.8171 23.0125 22.7991 22.9702C22.7811 22.928 22.7726 22.8823 22.7742 22.8365C22.7757 22.7906 22.7873 22.7456 22.8081 22.7047C23.4469 21.5569 23.8133 20.2776 23.8789 18.9656C23.9446 17.6537 23.7079 16.3442 23.1869 15.1383C22.666 13.9324 21.8748 12.8624 20.8746 12.0109C19.8743 11.1594 18.6917 10.5493 17.4181 10.2275C15.7152 9.79741 13.9212 9.90108 12.2791 10.5245C10.637 11.148 9.22625 12.261 8.23786 13.713C7.49802 14.7987 7.01789 16.04 6.8346 17.341C6.65132 18.6419 6.7698 19.9676 7.18089 21.2155C7.59197 22.4633 8.28464 23.5998 9.20528 24.5371C10.1259 25.4744 11.2499 26.1873 12.4901 26.6207C14.8141 27.4354 17.3131 27.6164 19.7303 27.1453C22.1474 26.6741 24.3954 25.5677 26.2433 23.9398C26.3223 23.8685 26.375 23.7726 26.393 23.6677C26.411 23.5628 26.3931 23.4548 26.3424 23.3613C26.2916 23.2677 26.2108 23.1939 26.113 23.1518C26.0153 23.1097 25.9062 23.1016 25.8033 23.129C24.8866 23.3882 23.9168 23.3947 22.9967 23.1478V23.1478Z" fill="white"/>
<path d="M86.5512 24.1126C85.5521 24.1164 84.5642 23.9019 83.6567 23.484C82.7687 23.0784 81.9738 22.4942 81.3215 21.768C80.6482 21.0183 80.1225 20.1482 79.7721 19.2034C79.3949 18.1891 79.2064 17.1144 79.2158 16.0323C79.2107 14.9181 79.4099 13.8123 79.8035 12.77C80.1656 11.8024 80.7121 10.9144 81.4127 10.1551C82.0888 9.36752 82.9077 8.71491 83.8264 8.23169C84.764 7.80749 85.783 7.59298 86.8121 7.60312C87.7974 7.58654 88.7728 7.80186 89.6595 8.23169C90.5151 8.7229 91.238 9.41551 91.7652 10.2494L91.8564 7.59998H95.8321V22.7517C95.8477 23.9244 95.643 25.0896 95.2287 26.1868C94.8516 27.1835 94.2676 28.089 93.5151 28.8437C92.7627 29.5983 91.8589 30.1849 90.8632 30.5648C89.7827 30.9804 88.6328 31.1862 87.4752 31.1714C86.3582 31.1874 85.2482 30.9923 84.2035 30.5963C83.2633 30.2335 82.4021 29.6924 81.6672 29.0028C80.9487 28.3281 80.37 27.5186 79.9638 26.6206L84.1124 25.5991C84.4672 26.1812 84.9621 26.6652 85.5518 27.0071C86.1795 27.3491 86.8839 27.5256 87.5987 27.5201C88.3135 27.5146 89.0151 27.3272 89.6375 26.9757C90.2307 26.6105 90.7089 26.0854 91.0172 25.4608C91.3598 24.7522 91.529 23.9723 91.5107 23.1854V21.7177C90.9538 22.4605 90.2275 23.0596 89.3924 23.4651C88.5091 23.9005 87.5359 24.1223 86.5512 24.1126V24.1126ZM87.6009 20.2751C88.3182 20.2879 89.0233 20.0889 89.6281 19.7031C90.2217 19.315 90.7064 18.7816 91.0361 18.1537C91.3832 17.4678 91.5641 16.7099 91.5641 15.9411C91.5641 15.1724 91.3832 14.4144 91.0361 13.7285C90.7054 13.1021 90.2209 12.5701 89.6281 12.1823C89.0187 11.8082 88.3176 11.6102 87.6025 11.6102C86.8875 11.6102 86.1864 11.8082 85.5769 12.1823C84.9835 12.5692 84.4988 13.1015 84.169 13.7285C83.8218 14.4144 83.6409 15.1724 83.6409 15.9411C83.6409 16.7099 83.8218 17.4678 84.169 18.1537C84.4978 18.7823 84.9826 19.3158 85.5769 19.7031C86.1808 20.0885 86.8847 20.2874 87.6009 20.2751V20.2751Z" fill="white"/>
<path d="M106.603 24.5706C105.467 24.5861 104.338 24.3722 103.286 23.9417C102.289 23.5317 101.385 22.9243 100.628 22.1559C99.8718 21.3875 99.2785 20.4741 98.8841 19.4705C98.4579 18.3962 98.2443 17.2493 98.2553 16.0936C98.2401 14.9415 98.4538 13.7979 98.8841 12.7292C99.2983 11.7249 99.9038 10.8108 100.667 10.0377C101.438 9.25654 102.36 8.64129 103.377 8.22968C104.446 7.79791 105.59 7.5841 106.742 7.60083C107.877 7.5852 109.005 7.79909 110.056 8.22968C111.049 8.63913 111.949 9.24439 112.703 10.0094C113.458 10.7773 114.053 11.6866 114.455 12.6851C115.29 14.8556 115.285 17.26 114.439 19.4265C114.028 20.4366 113.424 21.3564 112.659 22.1337C111.896 22.903 110.985 23.5095 109.98 23.9165C108.91 24.3587 107.761 24.5811 106.603 24.5706V24.5706ZM106.663 20.7345C107.393 20.7485 108.111 20.5425 108.723 20.1434C109.342 19.7265 109.841 19.1539 110.169 18.4832C110.519 17.7357 110.7 16.9205 110.7 16.0951C110.7 15.2698 110.519 14.4545 110.169 13.707C109.842 13.0312 109.343 12.4532 108.723 12.0311C108.105 11.6348 107.387 11.4242 106.654 11.4242C105.92 11.4242 105.202 11.6348 104.585 12.0311C103.967 12.4498 103.468 13.0219 103.138 13.6913C102.788 14.4388 102.607 15.254 102.607 16.0794C102.607 16.9048 102.788 17.72 103.138 18.4675C103.468 19.1375 103.966 19.7098 104.585 20.1277C105.2 20.5357 105.925 20.7473 106.663 20.7345V20.7345Z" fill="white"/>
<path d="M121.456 24.5714L115.324 7.59998H120.057L123.709 19.9923L127.421 7.59998H132L125.875 24.5714H121.456Z" fill="white"/>
<path d="M35.8864 24.5694C35.1106 24.5787 34.339 24.4544 33.6054 24.2018C32.9403 23.9732 32.3258 23.6179 31.7957 23.1556C31.2894 22.7112 30.8808 22.1667 30.5956 21.5564C30.3081 20.9277 30.1633 20.2432 30.1714 19.5519C30.152 18.595 30.4394 17.657 30.9914 16.8751C31.5772 16.0733 32.3715 15.4474 33.2881 15.0654C34.3828 14.612 35.5594 14.3895 36.7441 14.4119C37.3769 14.4109 38.0083 14.4719 38.6292 14.5942C39.2394 14.7161 39.8376 14.8916 40.4169 15.1188V14.1763C40.4534 13.3637 40.1755 12.5682 39.6409 11.955C39.3708 11.6688 39.042 11.4445 38.677 11.2975C38.312 11.1505 37.9194 11.0844 37.5264 11.1036C36.8841 11.0986 36.2531 11.2726 35.7042 11.6063C35.1671 11.928 34.7576 12.4251 34.5448 13.0138L30.7432 12.2535C30.9602 11.3352 31.4166 10.4907 32.0659 9.80604C32.7447 9.09445 33.5702 8.53912 34.4851 8.17858C35.4718 7.78763 36.5248 7.59132 37.5861 7.60049C38.5505 7.58889 39.5088 7.75394 40.4137 8.08747C41.2336 8.39147 41.9807 8.86391 42.6068 9.47431C43.2329 10.0847 43.7241 10.8195 44.0488 11.6314C44.3949 12.5071 44.5657 13.4422 44.5515 14.3837V24.5694H40.7499L40.6305 22.2256C40.1737 22.944 39.5325 23.5267 38.7737 23.9128C37.8811 24.369 36.8885 24.5948 35.8864 24.5694ZM34.3657 19.3383C34.3616 19.6105 34.423 19.8797 34.545 20.1231C34.667 20.3665 34.8458 20.5768 35.0664 20.7364C35.6045 21.1234 36.2581 21.3161 36.92 21.2831C37.5441 21.2938 38.1608 21.148 38.714 20.8589C39.2312 20.5892 39.6656 20.1842 39.9707 19.687C40.2734 19.1881 40.4312 18.6148 40.4263 18.0313V17.8774C39.9629 17.691 39.4848 17.5439 38.9968 17.4375C38.4973 17.3278 37.9875 17.272 37.4761 17.271C36.6821 17.2304 35.8938 17.4261 35.2109 17.8334C34.9509 17.9886 34.7361 18.2092 34.5878 18.4732C34.4395 18.7373 34.363 19.0355 34.3657 19.3383V19.3383Z" fill="white"/>
<path d="M53.5202 24.5704C52.4658 24.5841 51.4184 24.3976 50.4335 24.0209C49.5499 23.6821 48.7513 23.1536 48.0941 22.4728C47.4595 21.8075 47.0046 20.9916 46.7721 20.102L50.6031 19.2824C50.7877 19.8883 51.1731 20.4132 51.6958 20.7709C52.2521 21.1436 52.9104 21.3345 53.5799 21.3172C54.1803 21.3421 54.774 21.1832 55.2818 20.8619C55.4931 20.729 55.666 20.5432 55.7833 20.3229C55.9006 20.1025 55.9583 19.8554 55.9507 19.6059C55.951 19.3865 55.8969 19.1704 55.7934 18.977C55.6898 18.7835 55.54 18.6188 55.3572 18.4974C54.7616 18.1294 54.0929 17.8958 53.3978 17.8129L52.5468 17.6621C50.8051 17.3586 49.4831 16.7913 48.5808 15.9602C48.1406 15.5619 47.7917 15.0731 47.5581 14.5273C47.3245 13.9815 47.2117 13.3916 47.2274 12.7981C47.2106 11.8424 47.4868 10.9044 48.0187 10.1102C48.5716 9.30939 49.3313 8.67346 50.2168 8.27008C51.2272 7.80883 52.3281 7.58026 53.4386 7.60124C54.4404 7.58874 55.4352 7.77001 56.3683 8.13506C57.2067 8.46115 57.9588 8.9758 58.5664 9.63917C59.1622 10.306 59.5793 11.113 59.7785 11.9848L55.9789 12.7761C55.8044 12.2127 55.4601 11.717 54.9929 11.3568C54.535 11.0082 53.9732 10.8236 53.3978 10.8324C52.8448 10.8105 52.2999 10.9705 51.8465 11.2877C51.6587 11.4161 51.5053 11.5886 51.3996 11.79C51.294 11.9915 51.2393 12.2158 51.2405 12.4433C51.2438 12.6488 51.2995 12.8501 51.4022 13.0281C51.505 13.2061 51.6514 13.355 51.8277 13.4607C52.4501 13.8141 53.1383 14.0364 53.8499 14.1138L54.7009 14.2677C56.4217 14.5712 57.7384 15.1438 58.6512 15.9853C59.1003 16.3903 59.4557 16.8884 59.6927 17.4448C59.9297 18.0012 60.0426 18.6026 60.0234 19.2071C60.0313 19.9525 59.8703 20.69 59.5524 21.3643C59.2282 22.0219 58.7667 22.6023 58.199 23.0663C57.5852 23.5648 56.8848 23.9459 56.1328 24.1904C55.2878 24.4556 54.4058 24.5838 53.5202 24.5704V24.5704Z" fill="white"/>
<path d="M62.5775 24.5589V1H66.815V14.8746L73.6219 7.59334H78.6949L71.1561 15.462L78.6949 24.5714H73.2198L66.815 16.4201V24.5589H62.5775Z" fill="white"/>
</svg>