<svg width="132" height="48" viewBox="0 0 132 48" fill="none" xmlns="http://www.w3.org/2000/svg">
<path d="M130 1H96C94.8954 1 94 1.89543 94 3V13C94 14.1046 94.8954 15 96 15H130C131.105 15 132 14.1046 132 13V3C132 1.89543 131.105 1 130 1Z" fill="#F6F7FC"/>
<path d="M99.712 10.9996L100.313 9.26731H102.87L103.467 10.9996H104.516L102.16 4.4541H101.019L98.664 10.9996H99.712ZM100.6 8.43635L101.566 5.64302H101.617L102.582 8.43635H100.6Z" fill="#293FCC"/>
<path d="M105.461 10.9996H109.414V10.1494H106.448V4.4541H105.461V10.9996Z" fill="#293FCC"/>
<path d="M110.541 10.9996H111.528V8.69842H112.871C114.389 8.69842 115.14 7.78116 115.14 6.57306C115.14 5.36816 114.395 4.4541 112.874 4.4541H110.541V10.9996ZM111.528 7.86106V5.30105H112.768C113.746 5.30105 114.146 5.83159 114.146 6.57306C114.146 7.31454 113.746 7.86106 112.781 7.86106H111.528Z" fill="#293FCC"/>
<path d="M116.298 10.9996H117.285V8.14551H120.548V10.9996H121.539V4.4541H120.548V7.29856H117.285V4.4541H116.298V10.9996Z" fill="#293FCC"/>
<path d="M123.53 10.9996L124.131 9.26731H126.688L127.286 10.9996H128.334L125.978 4.4541H124.837L122.482 10.9996H123.53ZM124.419 8.43635L125.384 5.64302H125.435L126.4 8.43635H124.419Z" fill="#293FCC"/>
<path d="M18.4053 22.9098C18.1947 22.8375 17.9779 22.7746 17.7767 22.7181C17.3085 22.6018 16.8328 22.5178 16.353 22.4667C16.0043 22.43 15.6539 22.4122 15.3033 22.4132C15.1503 22.4132 14.9963 22.4132 14.8413 22.4132C12.2166 22.5329 9.74119 23.6684 7.93834 25.5798C6.13549 27.4911 5.14641 30.0286 5.18014 32.6558C5.18014 32.7689 5.18014 32.8852 5.18014 32.9984C5.18409 33.0758 5.1689 33.153 5.1359 33.2231C5.1029 33.2932 5.05313 33.3541 4.99097 33.4005C4.92882 33.4468 4.8562 33.477 4.77956 33.4886C4.70291 33.5001 4.62461 33.4926 4.55157 33.4667C2.92675 32.8783 1.42678 31.9903 0.129564 30.8487C0.060271 30.7757 0.0161485 30.6824 0.00365043 30.5826C-0.00884763 30.4827 0.0109348 30.3815 0.0601045 30.2937C0.109274 30.2059 0.185251 30.1361 0.276919 30.0946C0.368588 30.0531 0.471136 30.042 0.569565 30.0629C1.4865 30.3206 2.45583 30.3271 3.37614 30.0818C3.42005 30.0684 3.4605 30.0456 3.49465 30.0149C3.52879 29.9842 3.5558 29.9464 3.57377 29.9042C3.59175 29.862 3.60025 29.8163 3.59868 29.7704C3.59712 29.7245 3.58552 29.6796 3.56471 29.6387C2.92345 28.4908 2.55479 27.2108 2.48726 25.8976C2.41972 24.5845 2.65511 23.2734 3.17523 22.0658C3.69534 20.8582 4.48624 19.7863 5.48677 18.9332C6.4873 18.0801 7.67064 17.4685 8.94529 17.1458C9.7584 16.9416 10.5969 16.8569 11.4344 16.8944C12.7638 16.9561 14.0606 17.3261 15.2225 17.9752C16.3843 18.6243 17.3792 19.5347 18.1287 20.6344C18.4791 21.1521 18.7701 21.7077 18.9961 22.2906C19.0304 22.3748 19.0397 22.467 19.0231 22.5563C19.0064 22.6456 18.9645 22.7282 18.9023 22.7944C18.8401 22.8606 18.7602 22.9076 18.6721 22.9297C18.584 22.9518 18.4914 22.9482 18.4053 22.9192V22.9098Z" fill="white"/>
<path d="M22.9967 37.1478C22.9528 37.1345 22.9124 37.1116 22.8782 37.081C22.8441 37.0503 22.8171 37.0125 22.7991 36.9702C22.7811 36.928 22.7726 36.8823 22.7742 36.8365C22.7757 36.7906 22.7873 36.7456 22.8081 36.7047C23.4469 35.5569 23.8133 34.2776 23.8789 32.9656C23.9446 31.6537 23.7079 30.3442 23.1869 29.1383C22.666 27.9324 21.8748 26.8624 20.8746 26.0109C19.8743 25.1594 18.6917 24.5493 17.4181 24.2275C15.7152 23.7974 13.9212 23.9011 12.2791 24.5245C10.637 25.148 9.22625 26.261 8.23786 27.713C7.49802 28.7987 7.01789 30.04 6.8346 31.341C6.65132 32.6419 6.7698 33.9676 7.18089 35.2155C7.59197 36.4633 8.28464 37.5998 9.20528 38.5371C10.1259 39.4744 11.2499 40.1873 12.4901 40.6207C14.8141 41.4354 17.3131 41.6164 19.7303 41.1453C22.1474 40.6741 24.3954 39.5677 26.2433 37.9398C26.3223 37.8685 26.375 37.7726 26.393 37.6677C26.411 37.5628 26.3931 37.4548 26.3424 37.3613C26.2916 37.2677 26.2108 37.1939 26.113 37.1518C26.0153 37.1097 25.9062 37.1016 25.8033 37.129C24.8866 37.3882 23.9168 37.3947 22.9967 37.1478V37.1478Z" fill="white"/>
<path d="M86.5512 38.1126C85.5521 38.1164 84.5642 37.9019 83.6567 37.484C82.7687 37.0784 81.9738 36.4942 81.3215 35.768C80.6482 35.0183 80.1225 34.1482 79.7721 33.2034C79.3949 32.1891 79.2063 31.1144 79.2158 30.0323C79.2106 28.9181 79.4098 27.8123 79.8035 26.77C80.1656 25.8024 80.7121 24.9144 81.4126 24.1551C82.0887 23.3675 82.9077 22.7149 83.8264 22.2317C84.764 21.8075 85.783 21.593 86.8121 21.6031C87.7974 21.5865 88.7728 21.8019 89.6595 22.2317C90.5151 22.7229 91.2379 23.4155 91.7652 24.2494L91.8564 21.6H95.8321V36.7517C95.8476 37.9244 95.643 39.0896 95.2286 40.1868C94.8515 41.1835 94.2675 42.089 93.5151 42.8437C92.7626 43.5983 91.8588 44.1849 90.8632 44.5648C89.7827 44.9804 88.6328 45.1862 87.4752 45.1714C86.3582 45.1874 85.2481 44.9923 84.2035 44.5963C83.2633 44.2335 82.4021 43.6924 81.6672 43.0028C80.9487 42.3281 80.3699 41.5186 79.9638 40.6206L84.1124 39.5991C84.4672 40.1812 84.962 40.6652 85.5518 41.0071C86.1795 41.3491 86.8839 41.5256 87.5987 41.5201C88.3135 41.5146 89.0151 41.3272 89.6375 40.9757C90.2307 40.6105 90.7088 40.0854 91.0172 39.4608C91.3598 38.7522 91.5289 37.9723 91.5106 37.1854V35.7177C90.9538 36.4605 90.2275 37.0596 89.3924 37.4651C88.5091 37.9005 87.5359 38.1223 86.5512 38.1126V38.1126ZM87.6009 34.2751C88.3182 34.2879 89.0233 34.0889 89.6281 33.7031C90.2217 33.315 90.7063 32.7816 91.0361 32.1537C91.3832 31.4678 91.5641 30.7099 91.5641 29.9411C91.5641 29.1724 91.3832 28.4144 91.0361 27.7285C90.7053 27.1021 90.2208 26.5701 89.6281 26.1823C89.0187 25.8082 88.3176 25.6102 87.6025 25.6102C86.8874 25.6102 86.1863 25.8082 85.5769 26.1823C84.9834 26.5692 84.4988 27.1015 84.1689 27.7285C83.8218 28.4144 83.6409 29.1724 83.6409 29.9411C83.6409 30.7099 83.8218 31.4678 84.1689 32.1537C84.4977 32.7823 84.9826 33.3158 85.5769 33.7031C86.1808 34.0885 86.8847 34.2874 87.6009 34.2751V34.2751Z" fill="white"/>
<path d="M106.603 38.5706C105.467 38.5862 104.338 38.3723 103.286 37.9418C102.289 37.5318 101.385 36.9244 100.628 36.156C99.8718 35.3876 99.2785 34.4742 98.8841 33.4706C98.4579 32.3963 98.2443 31.2494 98.2553 30.0936C98.2401 28.9416 98.4538 27.798 98.8841 26.7292C99.2983 25.725 99.9038 24.8108 100.667 24.0377C101.438 23.2566 102.36 22.6413 103.377 22.2297C104.446 21.798 105.59 21.5842 106.742 21.6009C107.877 21.5853 109.005 21.7992 110.056 22.2297C111.049 22.6392 111.949 23.2444 112.703 24.0094C113.458 24.7773 114.053 25.6867 114.455 26.6852C115.29 28.8557 115.285 31.26 114.439 33.4266C114.028 34.4366 113.424 35.3564 112.659 36.1338C111.896 36.9031 110.985 37.5096 109.98 37.9166C108.91 38.3587 107.761 38.5811 106.603 38.5706V38.5706ZM106.663 34.7346C107.393 34.7486 108.111 34.5426 108.723 34.1435C109.342 33.7266 109.841 33.154 110.169 32.4833C110.519 31.7358 110.7 30.9205 110.7 30.0952C110.7 29.2698 110.519 28.4546 110.169 27.7071C109.842 27.0313 109.343 26.4533 108.723 26.0312C108.105 25.6349 107.387 25.4242 106.654 25.4242C105.92 25.4242 105.202 25.6349 104.585 26.0312C103.967 26.4498 103.468 27.0219 103.138 27.6914C102.788 28.4388 102.607 29.2541 102.607 30.0795C102.607 30.9048 102.788 31.7201 103.138 32.4676C103.468 33.1375 103.966 33.7099 104.585 34.1277C105.2 34.5357 105.925 34.7473 106.663 34.7346V34.7346Z" fill="white"/>
<path d="M121.456 38.5714L115.324 21.6H120.057L123.709 33.9923L127.421 21.6H132L125.875 38.5714H121.456Z" fill="white"/>
<path d="M35.8864 38.5695C35.1106 38.5788 34.339 38.4544 33.6055 38.2019C32.9403 37.9732 32.3258 37.618 31.7958 37.1557C31.2895 36.7113 30.8808 36.1668 30.5956 35.5565C30.3081 34.9278 30.1633 34.2433 30.1715 33.552C30.1521 32.5951 30.4394 31.6571 30.9915 30.8752C31.5772 30.0734 32.3716 29.4475 33.2881 29.0655C34.3829 28.6121 35.5594 28.3896 36.7441 28.412C37.3769 28.411 38.0083 28.472 38.6292 28.5942C39.2394 28.7161 39.8376 28.8917 40.4169 29.1189V28.1764C40.4534 27.3637 40.1755 26.5682 39.6409 25.9551C39.3709 25.6689 39.042 25.4446 38.677 25.2976C38.312 25.1506 37.9195 25.0844 37.5264 25.1037C36.8841 25.0986 36.2531 25.2727 35.7042 25.6064C35.1672 25.928 34.7577 26.4252 34.5449 27.0139L30.7433 26.2536C30.9602 25.3352 31.4166 24.4908 32.066 23.8061C32.7447 23.0945 33.5702 22.5392 34.4852 22.1786C35.4718 21.7877 36.5249 21.5914 37.5861 21.6005C38.5505 21.589 39.5088 21.754 40.4138 22.0875C41.2336 22.3915 41.9807 22.864 42.6068 23.4744C43.2329 24.0848 43.7241 24.8196 44.0488 25.6315C44.3949 26.5072 44.5657 27.4423 44.5515 28.3837V38.5695H40.7499L40.6306 36.2257C40.1737 36.9441 39.5325 37.5268 38.7737 37.9128C37.8811 38.3691 36.8886 38.5948 35.8864 38.5695ZM34.3658 33.3384C34.3616 33.6106 34.4231 33.8798 34.545 34.1231C34.667 34.3665 34.8458 34.5769 35.0664 34.7365C35.6045 35.1235 36.2581 35.3162 36.9201 35.2832C37.5441 35.2939 38.1609 35.148 38.714 34.859C39.2313 34.5893 39.6656 34.1843 39.9708 33.6871C40.2734 33.1882 40.4312 32.6149 40.4263 32.0314V31.8774C39.963 31.6911 39.4848 31.5439 38.9968 31.4376C38.4973 31.3279 37.9875 31.2721 37.4762 31.2711C36.6821 31.2305 35.8938 31.4262 35.2109 31.8334C34.9509 31.9887 34.7361 32.2093 34.5878 32.4733C34.4396 32.7373 34.363 33.0356 34.3658 33.3384V33.3384Z" fill="white"/>
<path d="M53.5202 38.5704C52.4658 38.5841 51.4184 38.3977 50.4335 38.0209C49.5499 37.6821 48.7513 37.1537 48.0941 36.4729C47.4595 35.8075 47.0045 34.9917 46.7721 34.1021L50.603 33.2825C50.7877 33.8883 51.1731 34.4133 51.6958 34.7709C52.2521 35.1437 52.9104 35.3346 53.5799 35.3173C54.1803 35.3421 54.774 35.1833 55.2818 34.862C55.4931 34.7291 55.666 34.5433 55.7833 34.3229C55.9006 34.1026 55.9583 33.8554 55.9506 33.6059C55.951 33.3865 55.8969 33.1705 55.7934 32.977C55.6898 32.7836 55.5399 32.6189 55.3572 32.4975C54.7616 32.1294 54.0929 31.8958 53.3977 31.8129L52.5468 31.6622C50.805 31.3587 49.4831 30.7914 48.5808 29.9603C48.1405 29.562 47.7916 29.0731 47.558 28.5273C47.3244 27.9815 47.2116 27.3917 47.2274 26.7982C47.2106 25.8424 47.4867 24.9044 48.0187 24.1102C48.5716 23.3094 49.3312 22.6735 50.2168 22.2701C51.2271 21.8089 52.3281 21.5803 53.4385 21.6013C54.4404 21.5888 55.4352 21.7701 56.3683 22.1351C57.2067 22.4612 57.9588 22.9759 58.5663 23.6392C59.1622 24.306 59.5792 25.1131 59.7784 25.9849L55.9789 26.7762C55.8044 26.2127 55.46 25.717 54.9929 25.3569C54.5349 25.0083 53.9732 24.8236 53.3977 24.8325C52.8448 24.8106 52.2999 24.9705 51.8465 25.2878C51.6587 25.4162 51.5053 25.5886 51.3996 25.7901C51.2939 25.9916 51.2393 26.2159 51.2405 26.4433C51.2438 26.6489 51.2994 26.8501 51.4022 27.0282C51.5049 27.2062 51.6514 27.3551 51.8277 27.4607C52.4501 27.8142 53.1383 28.0365 53.8499 28.1139L54.7009 28.2677C56.4216 28.5713 57.7384 29.1438 58.6511 29.9854C59.1003 30.3904 59.4557 30.8885 59.6927 31.4449C59.9297 32.0013 60.0425 32.6027 60.0234 33.2071C60.0313 33.9526 59.8702 34.6901 59.5523 35.3644C59.2281 36.022 58.7666 36.6024 58.1989 37.0663C57.5852 37.5649 56.8847 37.946 56.1328 38.1905C55.2877 38.4556 54.4057 38.5839 53.5202 38.5704V38.5704Z" fill="white"/>
<path d="M62.5775 38.5589V15H66.815V28.8746L73.6219 21.5933H78.6949L71.1561 29.462L78.6949 38.5714H73.2198L66.815 30.4201V38.5589H62.5775Z" fill="white"/>
</svg>