<svg width="139" height="43" viewBox="0 0 139 43" fill="none" xmlns="http://www.w3.org/2000/svg">
<path d="M4.48242 34V28.3359H9.96094V34H12.959V20.3965H9.96094V25.6211H4.48242V20.3965H1.48438V34H4.48242ZM25.4086 34V31.2754H20.5355V28.3359H25.2133V25.6211H20.5355V23.1211H25.4086V20.3965H17.5375V34H25.4086ZM37.4969 34V31.2754H32.6238V20.3965H29.6258V34H37.4969ZM43.7355 34V29.1367H44.8293C47.173 29.1367 48.4523 28.6582 49.2336 27.7598C49.8488 27.0371 50.132 26.041 50.132 24.8398C50.132 23.541 49.8098 22.457 49.0773 21.6758C48.2961 20.8555 47.0559 20.3965 44.8293 20.3965H40.7375V34H43.7355ZM43.7355 23.0039H44.5363C45.3762 23.0039 46.2746 23.0039 46.7727 23.5996C46.9973 23.8633 47.134 24.2441 47.134 24.7812C47.134 25.2793 47.0168 25.6406 46.8117 25.9043C46.3332 26.5781 45.3762 26.5781 44.5363 26.5781H43.7355V23.0039ZM65.2461 34.1953C68.3223 34.1953 71.0469 32.3984 71.623 29.4004H68.4492C68.0879 30.6602 66.7695 31.3633 65.2461 31.3633C63.0293 31.3633 61.2617 29.7812 61.2617 27.1836C61.2617 24.5371 63.0488 23.043 65.2461 23.043C66.7695 23.043 68.0684 23.7754 68.4492 24.957H71.6035C71.0273 21.998 68.3906 20.2012 65.2461 20.2012C61.0664 20.2012 58.2637 22.8574 58.2637 27.1641C58.2637 31.4023 60.998 34.1953 65.2461 34.1953ZM82.9789 34V31.2754H78.1059V28.3359H82.7836V25.6211H78.1059V23.1211H82.9789V20.3965H75.1078V34H82.9789ZM95.6727 28.8633L89.9891 20.3965H87.1961V34H90.1941V25.5332L95.868 34H98.6707V20.3965H95.6727V28.8633ZM108.786 34V23.1211H112.663V20.3965H101.902V23.1211H105.788V34H108.786ZM123.755 34V31.2754H118.882V28.3359H123.56V25.6211H118.882V23.1211H123.755V20.3965H115.884V34H123.755ZM134.223 28.5703C135.121 28.3945 135.756 28.082 136.244 27.6035C136.947 26.9395 137.367 25.9629 137.367 24.5957C137.367 23.4434 137.045 22.418 136.352 21.6758C135.57 20.8848 134.311 20.3965 132.064 20.3965H127.973V34H130.971V28.8633L134.564 34H138.344L134.223 28.5703ZM131.771 23.0039C132.631 23.0039 133.549 23.0039 134.027 23.6387C134.252 23.9023 134.369 24.2637 134.369 24.7812C134.369 25.2988 134.232 25.6602 134.027 25.9238C133.549 26.5781 132.611 26.5781 131.771 26.5781H130.971V23.0039H131.771Z" fill="white"/>
<rect x="101" width="38" height="14" rx="2" fill="#F6F7FC"/>
<path d="M106.712 9.99956L107.313 8.26731H109.87L110.467 9.99956H111.516L109.16 3.4541H108.019L105.664 9.99956H106.712ZM107.6 7.43635L108.566 4.64302H108.617L109.582 7.43635H107.6Z" fill="#293FCC"/>
<path d="M112.461 9.99956H116.414V9.14941H113.448V3.4541H112.461V9.99956Z" fill="#293FCC"/>
<path d="M117.541 9.99956H118.528V7.69842H119.871C121.389 7.69842 122.14 6.78116 122.14 5.57306C122.14 4.36816 121.395 3.4541 119.874 3.4541H117.541V9.99956ZM118.528 6.86106V4.30105H119.768C120.746 4.30105 121.146 4.83159 121.146 5.57306C121.146 6.31454 120.746 6.86106 119.781 6.86106H118.528Z" fill="#293FCC"/>
<path d="M123.298 9.99956H124.285V7.14551H127.548V9.99956H128.539V3.4541H127.548V6.29856H124.285V3.4541H123.298V9.99956Z" fill="#293FCC"/>
<path d="M130.53 9.99956L131.131 8.26731H133.688L134.286 9.99956H135.334L132.978 3.4541H131.837L129.482 9.99956H130.53ZM131.419 7.43635L132.384 4.64302H132.435L133.4 7.43635H131.419Z" fill="#293FCC"/>
</svg>
