<svg width="104" height="48" viewBox="0 0 104 48" fill="none" xmlns="http://www.w3.org/2000/svg">
<path fill-rule="evenodd" clip-rule="evenodd" d="M1.57895 7H28.4211C29.2931 7 30 7.68474 30 8.52941V16.1765C30 17.0211 29.2931 17.7059 28.4211 17.7059H1.57895C0.706919 17.7059 0 17.0211 0 16.1765V8.52941C0 7.68474 0.706919 7 1.57895 7ZM4.82764 13.6807L4.36804 15.0054H3.56664L5.36751 10H6.24005L8.04169 15.0054H7.23951L6.78299 13.6807H4.82764ZM5.78581 10.9092L5.0471 13.0453H6.56275L5.82481 10.9092H5.78581ZM8.76424 15.0054H11.7871V14.3553H9.51901V10H8.76424V15.0054ZM13.4038 15.0054H12.649V10H14.4331C15.5962 10 16.1659 10.699 16.1659 11.6204C16.1659 12.5442 15.5916 13.2457 14.4308 13.2457H13.4038V15.0054ZM13.4038 10.6477V12.6053H14.3619C15.0999 12.6053 15.4058 12.1874 15.4058 11.6204C15.4058 11.0534 15.0999 10.6477 14.352 10.6477H13.4038ZM17.0514 15.0054H17.8062V12.8229H20.3014V15.0054H21.0592V10H20.3014V12.1752H17.8062V10H17.0514V15.0054ZM23.0413 13.6807L22.5817 15.0054H21.7803L23.5812 10H24.4537L26.2554 15.0054H25.4539L24.9967 13.6807H23.0413ZM23.9995 10.9092L23.2615 13.0453H24.7764L24.0385 10.9092H23.9995Z" fill="#EF4D5A"/>
<path d="M14.5011 26.2551C14.3352 26.1982 14.1644 26.1487 14.0059 26.1041C13.637 26.0125 13.2622 25.9463 12.8842 25.906C12.6095 25.8771 12.3334 25.8631 12.0571 25.8639C11.9366 25.8639 11.8153 25.8639 11.6931 25.8639C9.62517 25.9582 7.67488 26.8528 6.25445 28.3588C4.83402 29.8647 4.05475 31.8639 4.08132 33.9338C4.08132 34.0229 4.08132 34.1146 4.08132 34.2037C4.08444 34.2647 4.07246 34.3255 4.04647 34.3808C4.02047 34.436 3.98125 34.484 3.93228 34.5205C3.88331 34.557 3.8261 34.5808 3.76571 34.5899C3.70533 34.599 3.64363 34.5931 3.58608 34.5727C2.30592 34.1091 1.12413 33.4095 0.102081 32.51C0.0474862 32.4525 0.0127231 32.379 0.0028761 32.3004C-0.00697086 32.2217 0.00861528 32.1419 0.0473551 32.0728C0.0860948 32.0036 0.145956 31.9486 0.218179 31.9159C0.290402 31.8832 0.371198 31.8744 0.448748 31.8909C1.17118 32.0939 1.93489 32.0991 2.65999 31.9058C2.69459 31.8953 2.72646 31.8773 2.75336 31.8531C2.78026 31.8289 2.80154 31.7992 2.8157 31.7659C2.82986 31.7326 2.83656 31.6966 2.83533 31.6605C2.83409 31.6243 2.82496 31.5889 2.80856 31.5567C2.30332 30.6523 2.01287 29.6438 1.95966 28.6092C1.90645 27.5746 2.09191 26.5416 2.50169 25.5902C2.91148 24.6387 3.53461 23.7942 4.32291 23.1221C5.1112 22.4499 6.04353 21.9681 7.0478 21.7138C7.68844 21.5529 8.34908 21.4862 9.00894 21.5157C10.0563 21.5644 11.0781 21.8559 11.9934 22.3673C12.9088 22.8787 13.6927 23.5959 14.2832 24.4624C14.5593 24.8703 14.7886 25.3081 14.9667 25.7673C14.9936 25.8336 15.001 25.9063 14.9879 25.9766C14.9748 26.047 14.9417 26.1121 14.8927 26.1642C14.8437 26.2164 14.7808 26.2534 14.7113 26.2708C14.6419 26.2882 14.569 26.2854 14.5011 26.2626V26.2551Z" fill="black"/>
<path d="M18.1186 37.473C18.084 37.4625 18.0521 37.4445 18.0252 37.4204C17.9983 37.3962 17.9771 37.3664 17.9629 37.3331C17.9487 37.2998 17.942 37.2639 17.9433 37.2277C17.9445 37.1916 17.9536 37.1561 17.97 37.1239C18.4733 36.2196 18.762 35.2116 18.8137 34.178C18.8655 33.1443 18.6789 32.1126 18.2685 31.1625C17.858 30.2124 17.2347 29.3694 16.4466 28.6985C15.6586 28.0276 14.7268 27.5469 13.7234 27.2934C12.3817 26.9545 10.9682 27.0362 9.67444 27.5274C8.38069 28.0186 7.26916 28.8956 6.49043 30.0395C5.90752 30.8949 5.52924 31.873 5.38483 32.898C5.24043 33.923 5.33378 34.9674 5.65766 35.9506C5.98155 36.9337 6.52728 37.8292 7.25264 38.5676C7.978 39.3061 8.86353 39.8678 9.84071 40.2092C11.6717 40.8511 13.6406 40.9937 15.545 40.6225C17.4494 40.2513 19.2206 39.3796 20.6765 38.097C20.7388 38.0408 20.7803 37.9653 20.7945 37.8826C20.8086 37.8 20.7946 37.7149 20.7546 37.6412C20.7146 37.5675 20.6509 37.5094 20.5739 37.4762C20.4969 37.443 20.4109 37.4366 20.3299 37.4582C19.6076 37.6624 18.8436 37.6676 18.1186 37.473V37.473Z" fill="#EF4D5A"/>
<path d="M68.1918 38.2331C67.4046 38.2361 66.6263 38.0671 65.9112 37.7378C65.2116 37.4182 64.5854 36.958 64.0714 36.3858C63.5409 35.7951 63.1268 35.1096 62.8507 34.3652C62.5535 33.5661 62.4049 32.7193 62.4124 31.8668C62.4083 30.9889 62.5653 30.1177 62.8754 29.2965C63.1607 28.5342 63.5913 27.8345 64.1432 27.2363C64.6759 26.6158 65.3212 26.1016 66.0449 25.7209C66.7837 25.3866 67.5865 25.2176 68.3973 25.2256C69.1736 25.2126 69.9421 25.3822 70.6408 25.7209C71.3149 26.1079 71.8844 26.6536 72.2998 27.3106L72.3716 25.2231H75.504V37.1609C75.5163 38.0848 75.355 39.0029 75.0286 39.8673C74.7315 40.6526 74.2713 41.366 73.6785 41.9606C73.0857 42.5551 72.3736 43.0173 71.5891 43.3167C70.7378 43.6441 69.8319 43.8063 68.9198 43.7946C68.0397 43.8072 67.1651 43.6534 66.3421 43.3414C65.6013 43.0556 64.9228 42.6293 64.3438 42.086C63.7777 41.5544 63.3217 40.9166 63.0017 40.2091L66.2703 39.4043C66.5498 39.8629 66.9397 40.2442 67.4044 40.5136C67.8989 40.783 68.4539 40.9221 69.0171 40.9178C69.5803 40.9134 70.1331 40.7658 70.6234 40.4889C71.0908 40.2011 71.4675 39.7874 71.7105 39.2953C71.9804 38.737 72.1136 38.1225 72.0992 37.5026V36.3462C71.6605 36.9315 71.0883 37.4035 70.4303 37.723C69.7344 38.066 68.9676 38.2407 68.1918 38.2331V38.2331ZM69.0188 35.2096C69.584 35.2197 70.1395 35.0629 70.616 34.759C71.0837 34.4531 71.4655 34.0329 71.7253 33.5382C71.9988 32.9978 72.1413 32.4006 72.1413 31.795C72.1413 31.1893 71.9988 30.5921 71.7253 30.0517C71.4647 29.5582 71.083 29.139 70.616 28.8334C70.1359 28.5387 69.5835 28.3827 69.0201 28.3827C68.4567 28.3827 67.9043 28.5387 67.4242 28.8334C66.9566 29.1383 66.5747 29.5577 66.3149 30.0517C66.0414 30.5921 65.8988 31.1893 65.8988 31.795C65.8988 32.4006 66.0414 32.9978 66.3149 33.5382C66.5739 34.0335 66.9559 34.4538 67.4242 34.759C67.8999 35.0626 68.4546 35.2193 69.0188 35.2096V35.2096Z" fill="black"/>
<path d="M83.9905 38.594C83.0948 38.6062 82.2059 38.4377 81.3769 38.0985C80.5911 37.7755 79.8788 37.2969 79.2828 36.6915C78.6868 36.0861 78.2194 35.3664 77.9087 34.5757C77.5728 33.7293 77.4045 32.8257 77.4132 31.9151C77.4012 31.0074 77.5696 30.1064 77.9087 29.2644C78.235 28.4731 78.7121 27.7529 79.3133 27.1438C79.9206 26.5284 80.6473 26.0436 81.4487 25.7193C82.2905 25.3791 83.1917 25.2107 84.0995 25.2239C84.9943 25.2115 85.8824 25.3801 86.7106 25.7193C87.493 26.0419 88.2024 26.5188 88.7965 27.1215C89.3907 27.7265 89.8597 28.443 90.1763 29.2297C90.8346 30.9398 90.8302 32.8341 90.164 34.5411C89.8405 35.3369 89.3641 36.0615 88.7618 36.674C88.1604 37.2801 87.4424 37.758 86.6511 38.0787C85.8077 38.427 84.9029 38.6022 83.9905 38.594V38.594ZM84.0375 35.5716C84.6129 35.5826 85.1783 35.4204 85.6602 35.1059C86.1482 34.7774 86.5413 34.3263 86.7998 33.7979C87.0755 33.209 87.2185 32.5666 87.2185 31.9163C87.2185 31.2661 87.0755 30.6237 86.7998 30.0348C86.5423 29.5023 86.1493 29.047 85.6602 28.7144C85.1738 28.4022 84.6081 28.2362 84.0301 28.2362C83.4522 28.2362 82.8864 28.4022 82.4 28.7144C81.9132 29.0442 81.5205 29.495 81.2605 30.0224C80.9847 30.6113 80.8418 31.2537 80.8418 31.904C80.8418 32.5542 80.9847 33.1966 81.2605 33.7855C81.5198 34.3134 81.9127 34.7643 82.4 35.0935C82.8849 35.4149 83.4559 35.5817 84.0375 35.5716V35.5716Z" fill="black"/>
<path d="M95.6924 38.5946L90.8613 25.2231H94.5905L97.4678 34.9868L100.392 25.2231H104L99.1739 38.5946H95.6924Z" fill="black"/>
<path d="M28.2739 38.5931C27.6627 38.6004 27.0548 38.5024 26.4768 38.3034C25.9528 38.1233 25.4686 37.8434 25.051 37.4791C24.6521 37.129 24.3301 36.7 24.1054 36.2192C23.8789 35.7238 23.7648 35.1845 23.7712 34.6399C23.7559 33.886 23.9823 33.1469 24.4173 32.5309C24.8788 31.8992 25.5047 31.406 26.2268 31.1051C27.0893 30.7478 28.0163 30.5725 28.9497 30.5902C29.4483 30.5894 29.9457 30.6375 30.4349 30.7338C30.9157 30.8298 31.387 30.9681 31.8434 31.1472V30.4045C31.8722 29.7643 31.6532 29.1375 31.232 28.6545C31.0192 28.4289 30.7602 28.2522 30.4726 28.1364C30.185 28.0206 29.8757 27.9685 29.5661 27.9836C29.06 27.9797 28.5628 28.1168 28.1304 28.3797C27.7073 28.6331 27.3846 29.0248 27.2169 29.4887L24.2217 28.8896C24.3927 28.1661 24.7523 27.5007 25.2639 26.9613C25.7987 26.4007 26.4491 25.9631 27.1699 25.6791C27.9473 25.371 28.7769 25.2164 29.6131 25.2236C30.3729 25.2145 31.128 25.3445 31.8409 25.6073C32.4869 25.8468 33.0755 26.219 33.5688 26.6999C34.0621 27.1809 34.4491 27.7598 34.7049 28.3995C34.9776 29.0894 35.1121 29.8262 35.101 30.5679V38.5931H32.1058L32.0117 36.7464C31.6518 37.3125 31.1466 37.7715 30.5488 38.0757C29.8455 38.4352 29.0635 38.613 28.2739 38.5931ZM27.0758 34.4716C27.0725 34.686 27.121 34.8981 27.2171 35.0899C27.3132 35.2816 27.4541 35.4474 27.6279 35.5731C28.0518 35.878 28.5668 36.0299 29.0883 36.0038C29.58 36.0123 30.0659 35.8974 30.5018 35.6697C30.9093 35.4571 31.2515 35.138 31.4919 34.7463C31.7304 34.3533 31.8547 33.9016 31.8508 33.4418V33.3205C31.4858 33.1737 31.109 33.0578 30.7245 32.974C30.331 32.8876 29.9294 32.8436 29.5265 32.8428C28.9008 32.8108 28.2798 32.965 27.7417 33.2859C27.5369 33.4082 27.3676 33.582 27.2508 33.79C27.134 33.998 27.0737 34.233 27.0758 34.4716V34.4716Z" fill="#EF4D5A"/>
<path d="M42.1673 38.5938C41.3365 38.6046 40.5113 38.4577 39.7353 38.1609C39.0391 37.8939 38.41 37.4776 37.8922 36.9412C37.3921 36.417 37.0337 35.7742 36.8506 35.0733L39.8689 34.4276C40.0144 34.9049 40.318 35.3185 40.7299 35.6003C41.1682 35.894 41.6868 36.0444 42.2143 36.0307C42.6873 36.0503 43.1551 35.9251 43.5552 35.672C43.7217 35.5673 43.8579 35.4209 43.9503 35.2473C44.0427 35.0737 44.0882 34.879 44.0822 34.6824C44.0824 34.5095 44.0398 34.3393 43.9582 34.1869C43.8766 34.0345 43.7586 33.9047 43.6146 33.8091C43.1453 33.5191 42.6185 33.335 42.0708 33.2697L41.4003 33.151C40.0281 32.9118 38.9865 32.4648 38.2756 31.81C37.9288 31.4962 37.6539 31.1111 37.4698 30.6811C37.2858 30.251 37.1969 29.7863 37.2093 29.3187C37.1961 28.5657 37.4136 27.8267 37.8328 27.2009C38.2684 26.57 38.8669 26.069 39.5646 25.7512C40.3606 25.3877 41.228 25.2077 42.1029 25.2242C42.8923 25.2143 43.6761 25.3572 44.4112 25.6448C45.0718 25.9017 45.6643 26.3072 46.143 26.8298C46.6125 27.3552 46.9411 27.9911 47.098 28.6779L44.1044 29.3014C43.967 28.8575 43.6956 28.4669 43.3276 28.1831C42.9668 27.9085 42.5242 27.763 42.0708 27.77C41.6351 27.7527 41.2058 27.8787 40.8486 28.1287C40.7006 28.2298 40.5797 28.3657 40.4965 28.5245C40.4132 28.6832 40.3702 28.8599 40.3711 29.0391C40.3737 29.2011 40.4176 29.3596 40.4985 29.4999C40.5795 29.6402 40.6949 29.7575 40.8338 29.8407C41.3242 30.1192 41.8664 30.2943 42.427 30.3553L43.0975 30.4765C44.4533 30.7157 45.4907 31.1668 46.2098 31.8298C46.5637 32.1489 46.8437 32.5413 47.0304 32.9797C47.2172 33.4181 47.3061 33.8919 47.291 34.3682C47.2972 34.9555 47.1703 35.5366 46.9199 36.0678C46.6644 36.5859 46.3008 37.0432 45.8536 37.4088C45.37 37.8016 44.8181 38.1018 44.2257 38.2945C43.5599 38.5034 42.865 38.6044 42.1673 38.5938V38.5938Z" fill="#EF4D5A"/>
<path d="M49.3037 38.5847V20.0232H52.6423V30.9547L58.0054 25.2179H62.0023L56.0626 31.4175L62.0023 38.5946H57.6886L52.6423 32.1723V38.5847H49.3037Z" fill="#EF4D5A"/>
</svg>
