<svg width="98" height="15" viewBox="0 0 98 15" fill="none" xmlns="http://www.w3.org/2000/svg">
<path d="M3.48242 14V8.33594H8.96094V14H11.959V0.396484H8.96094V5.62109H3.48242V0.396484H0.484375V14H3.48242ZM24.4086 14V11.2754H19.5355V8.33594H24.2133V5.62109H19.5355V3.12109H24.4086V0.396484H16.5375V14H24.4086ZM36.4969 14V11.2754H31.6238V0.396484H28.6258V14H36.4969ZM42.7355 14V9.13672H43.8293C46.173 9.13672 47.4523 8.6582 48.2336 7.75977C48.8488 7.03711 49.132 6.04102 49.132 4.83984C49.132 3.54102 48.8098 2.45703 48.0773 1.67578C47.2961 0.855469 46.0559 0.396484 43.8293 0.396484H39.7375V14H42.7355ZM42.7355 3.00391H43.5363C44.3762 3.00391 45.2746 3.00391 45.7727 3.59961C45.9973 3.86328 46.134 4.24414 46.134 4.78125C46.134 5.2793 46.0168 5.64062 45.8117 5.9043C45.3332 6.57812 44.3762 6.57812 43.5363 6.57812H42.7355V3.00391ZM58.8668 9.19531H62.1285C61.6793 10.6699 60.3219 11.3828 58.7398 11.3828C56.2789 11.3828 54.6383 9.78125 54.6383 7.18359C54.6383 4.53711 56.4254 3.04297 58.6227 3.04297C60.1461 3.04297 61.4449 3.77539 61.8258 4.95703H64.9801C64.4039 1.99805 61.7867 0.201172 58.6422 0.201172C54.443 0.201172 51.6402 2.85742 51.6402 7.16406C51.6402 11.4023 54.3648 14.1953 58.6227 14.1953C62.402 14.1953 65.3414 11.9395 65.3414 7.11523V6.74414H58.8668V9.19531ZM75.3203 14.1953C79.5195 14.1953 82.3223 11.4805 82.3223 7.18359C82.3223 2.91602 79.5977 0.201172 75.3398 0.201172C71.1406 0.201172 68.3379 2.85742 68.3379 7.16406C68.3379 11.4023 71.0625 14.1953 75.3203 14.1953ZM75.3203 11.3633C73.123 11.3633 71.3457 9.80078 71.3457 7.16406C71.3457 4.53711 73.123 3.04297 75.3203 3.04297C77.5566 3.04297 79.3242 4.55664 79.3242 7.16406C79.3242 9.80078 77.5566 11.3633 75.3203 11.3633ZM91.891 14L97.4086 0.396484H94.1957L90.6117 9.64453L87.057 0.396484H83.8344L89.352 14H91.891Z" fill="#161D3A"/>
</svg>
