<?xml version="1.0" encoding="UTF-8"?>
<svg width="490px" height="125px" viewBox="0 0 490 125" version="1.1" xmlns="http://www.w3.org/2000/svg" xmlns:xlink="http://www.w3.org/1999/xlink">
    <!-- Generator: Sketch 52.2 (67145) - http://www.bohemiancoding.com/sketch -->
    <title>Logo_Hori</title>
    <desc>Created with Sketch.</desc>
    <defs>
        <polygon id="path-1" points="1.1372093 0.0837209302 19.5508721 0.0837209302 19.5508721 26.0793605 1.1372093 26.0793605"></polygon>
        <polygon id="path-3" points="0 0.814559019 44.6701884 0.814559019 44.6701884 124.184923 0 124.184923"></polygon>
    </defs>
    <g id="Brand-Guideline" stroke="none" stroke-width="1" fill="none" fill-rule="evenodd">
        <g id="Rationale" transform="translate(-720.000000, -450.000000)">
            <g id="Logo_Hori" transform="translate(720.000000, 450.000000)">
                <path d="M211.343169,17.6959302 C211.343169,12.8049419 207.569913,9.03168605 202.678924,9.03168605 C197.803924,9.03168605 194.013227,12.8049419 194.013227,17.6959302 C194.013227,22.5869186 197.803924,26.3601744 202.678924,26.3601744 C207.569913,26.3601744 211.343169,22.5869186 211.343169,17.6959302 M188.953634,17.6959302 C188.953634,10.097093 194.875145,4.36017442 202.678924,4.36017442 C210.479797,4.36017442 216.402762,10.097093 216.402762,17.6959302 C216.402762,25.2962209 210.479797,31.031686 202.678924,31.031686 C194.875145,31.031686 188.953634,25.2962209 188.953634,17.6959302" id="Fill-1" fill="#000000"></path>
                <path d="M239.669913,12.9912791 C239.669913,10.6061047 238.146657,8.94622093 235.23532,8.94622093 L230.767297,8.94622093 C230.300727,8.94622093 229.921366,9.3255814 229.921366,9.79215116 L229.921366,16.1409884 C229.921366,16.6075581 230.300727,16.9854651 230.767297,16.9854651 L235.23532,16.9854651 C238.146657,16.9854651 239.669913,15.4796512 239.669913,12.9912791 M244.560901,13.0421512 C244.560901,17.7136628 241.209157,21.25 235.996948,21.25 L230.767297,21.25 C230.300727,21.25 229.921366,21.627907 229.921366,22.0959302 L229.921366,29.8488372 C229.921366,30.315407 229.543459,30.693314 229.07689,30.693314 L225.723692,30.693314 C225.255669,30.693314 224.877762,30.315407 224.877762,29.8488372 L224.877762,5.54360465 C224.877762,5.07703488 225.255669,4.69912791 225.723692,4.69912791 L235.996948,4.69912791 C241.209157,4.69912791 244.560901,8.43895349 244.560901,13.0421512" id="Fill-3" fill="#000000"></path>
                <path d="M257.773837,10.0296512 L257.773837,14.6502907 C257.773837,15.1168605 258.151744,15.4962209 258.619767,15.4962209 L266.151744,15.4962209 C266.618314,15.4962209 266.997674,15.8741279 266.997674,16.3421512 L266.997674,19.0848837 C266.997674,19.5514535 266.618314,19.930814 266.151744,19.930814 L258.619767,19.930814 C258.151744,19.930814 257.773837,20.3087209 257.773837,20.7752907 L257.773837,25.3625 C257.773837,25.8305233 258.151744,26.2084302 258.619767,26.2084302 L267.404651,26.2084302 C267.871221,26.2084302 268.250581,26.5877907 268.250581,27.052907 L268.250581,29.8479651 C268.250581,30.3159884 267.871221,30.6938953 267.404651,30.6938953 L253.576163,30.6938953 C253.109593,30.6938953 252.731686,30.3159884 252.731686,29.8479651 L252.731686,5.54418605 C252.731686,5.07761628 253.109593,4.6997093 253.576163,4.6997093 L267.404651,4.6997093 C267.871221,4.6997093 268.250581,5.07761628 268.250581,5.54418605 L268.250581,8.3377907 C268.250581,8.80581395 267.871221,9.18372093 267.404651,9.18372093 L258.619767,9.18372093 C258.151744,9.18372093 257.773837,9.5630814 257.773837,10.0296512" id="Fill-5" fill="#000000"></path>
                <path d="M301.907267,5.5443314 L301.907267,29.8481105 C301.907267,30.3146802 301.527907,30.6940407 301.061337,30.6940407 L297.540988,30.6940407 C297.283721,30.6940407 297.039535,30.5763081 296.879651,30.3742733 L283.815698,13.96875 C283.317151,13.34375 282.309884,13.6954942 282.309884,14.4963663 L282.309884,29.8481105 C282.309884,30.3146802 281.930523,30.6940407 281.463953,30.6940407 L278.180523,30.6940407 C277.7125,30.6940407 277.334593,30.3146802 277.334593,29.8481105 L277.334593,5.5443314 C277.334593,5.07776163 277.7125,4.69840116 278.180523,4.69840116 L281.665988,4.69840116 C281.923256,4.69840116 282.165988,4.81613372 282.325872,5.01671512 L295.392733,21.3626453 C295.891279,21.9876453 296.898547,21.6344477 296.898547,20.8364826 L296.898547,5.5443314 C296.898547,5.07776163 297.275,4.69840116 297.743023,4.69840116 L301.061337,4.69840116 C301.527907,4.69840116 301.907267,5.07776163 301.907267,5.5443314" id="Fill-7" fill="#000000"></path>
                <path d="M216.402762,62.4659884 C216.402762,70.0982558 210.497238,75.8351744 202.678924,75.8351744 C194.875145,75.8351744 188.953634,70.0982558 188.953634,62.4994186 C188.953634,54.9005814 194.875145,49.1651163 202.678924,49.1651163 C207.165843,49.1651163 211.036483,51.072093 213.495785,54.1215116 C213.828634,54.5343023 213.715262,55.1491279 213.251599,55.4049419 L210.350436,57.006686 C210.007413,57.197093 209.565552,57.1360465 209.309738,56.8380814 C207.73561,55.0008721 205.376599,53.8351744 202.660029,53.8351744 C197.803924,53.8351744 194.013227,57.5415698 194.013227,62.6171512 C194.013227,67.3744186 197.380959,71.1651163 202.745785,71.1651163 C206.562645,71.1651163 209.398401,69.2552326 210.641134,66.2261628 C210.864971,65.6767442 210.442006,65.072093 209.847529,65.072093 L205.097529,65.072093 C204.630959,65.072093 204.253052,64.694186 204.253052,64.2261628 L204.253052,61.7552326 C204.253052,61.2872093 204.630959,60.9093023 205.097529,60.9093023 L215.529215,60.9093023 C215.97689,60.9093023 216.341715,61.2552326 216.373692,61.7014535 C216.392587,61.9456395 216.402762,62.2014535 216.402762,62.4659884" id="Fill-9" fill="#000000"></path>
                <path d="M245.169477,62.5 C245.169477,57.6090116 241.394767,53.8357558 236.505233,53.8357558 C231.631686,53.8357558 227.839535,57.6090116 227.839535,62.5 C227.839535,67.3909884 231.631686,71.1642442 236.505233,71.1642442 C241.394767,71.1642442 245.169477,67.3909884 245.169477,62.5 M222.779942,62.5 C222.779942,54.9011628 228.702907,49.1642442 236.505233,49.1642442 C244.306105,49.1642442 250.230523,54.9011628 250.230523,62.5 C250.230523,70.0988372 244.306105,75.8357558 236.505233,75.8357558 C228.702907,75.8357558 222.779942,70.0988372 222.779942,62.5" id="Fill-11" fill="#000000"></path>
                <path d="M279.104215,50.6478198 L269.894913,74.9515988 C269.771366,75.2800872 269.455959,75.4981105 269.105669,75.4981105 L265.06061,75.4981105 C264.708866,75.4981105 264.393459,75.2800872 264.269913,74.9515988 L255.076599,50.6478198 C254.867297,50.0940407 255.275727,49.5024709 255.867297,49.5024709 L259.378924,49.5024709 C259.736483,49.5024709 260.054797,49.7277616 260.175436,50.0635174 L266.287355,67.1928779 C266.554797,67.9414244 267.611483,67.9414244 267.878924,67.1943314 L274.006831,50.0635174 C274.126017,49.7277616 274.445785,49.5024709 274.80189,49.5024709 L278.313517,49.5024709 C278.905087,49.5024709 279.314971,50.0940407 279.104215,50.6478198" id="Fill-13" fill="#000000"></path>
                <path d="M292.17718,54.8329942 L292.17718,59.4550872 C292.17718,59.921657 292.556541,60.299564 293.02311,60.299564 L300.555087,60.299564 C301.021657,60.299564 301.401017,60.6774709 301.401017,61.1454942 L301.401017,63.8882267 C301.401017,64.3547965 301.021657,64.734157 300.555087,64.734157 L293.02311,64.734157 C292.556541,64.734157 292.17718,65.112064 292.17718,65.5800872 L292.17718,70.1672965 C292.17718,70.6338663 292.556541,71.0117733 293.02311,71.0117733 L301.807994,71.0117733 C302.274564,71.0117733 302.652471,71.3911337 302.652471,71.8577035 L302.652471,74.6513081 C302.652471,75.1193314 302.274564,75.4972384 301.807994,75.4972384 L287.978052,75.4972384 C287.511483,75.4972384 287.133576,75.1193314 287.133576,74.6513081 L287.133576,50.3489826 C287.133576,49.8809593 287.511483,49.5030523 287.978052,49.5030523 L301.807994,49.5030523 C302.274564,49.5030523 302.652471,49.8809593 302.652471,50.3489826 L302.652471,53.1425872 C302.652471,53.609157 302.274564,53.987064 301.807994,53.987064 L293.02311,53.987064 C292.556541,53.987064 292.17718,54.3664244 292.17718,54.8329942" id="Fill-15" fill="#000000"></path>
                <path d="M316.779942,59.6235465 C316.779942,60.0901163 317.159302,60.4694767 317.625872,60.4694767 L321.553198,60.4694767 C323.973256,60.4694767 325.277035,59.2325581 325.277035,57.1526163 C325.277035,55.1046512 323.973256,53.7674419 321.553198,53.7674419 L317.625872,53.7674419 C317.159302,53.7674419 316.779942,54.1453488 316.779942,54.6133721 L316.779942,59.6235465 Z M320.511047,64.5130814 L317.625872,64.5130814 C317.159302,64.5130814 316.779942,64.8924419 316.779942,65.3590116 L316.779942,74.6511628 C316.779942,75.119186 316.402035,75.497093 315.935465,75.497093 L312.582267,75.497093 C312.115698,75.497093 311.737791,75.119186 311.737791,74.6511628 L311.737791,50.3488372 C311.737791,49.880814 312.115698,49.502907 312.582267,49.502907 L321.89186,49.502907 C327.239244,49.502907 330.16657,52.9549419 330.16657,57.2020349 C330.16657,60.0465116 328.705814,62.3284884 326.458721,63.5494186 C326.038663,63.7761628 325.893314,64.3037791 326.136047,64.7151163 L331.765407,74.2209302 C332.098256,74.7848837 331.692733,75.497093 331.037209,75.497093 L327.537209,75.497093 C327.227616,75.497093 326.944186,75.3299419 326.79593,75.0581395 L321.252326,64.9520349 C321.10407,64.681686 320.819186,64.5130814 320.511047,64.5130814 Z" id="Fill-17" fill="#000000"></path>
                <path d="M364.688372,50.3482558 L364.688372,74.6520349 C364.688372,75.1186047 364.309012,75.4979651 363.842442,75.4979651 L360.322093,75.4979651 C360.064826,75.4979651 359.82064,75.3802326 359.660756,75.1781977 L346.596802,58.7726744 C346.098256,58.1476744 345.090988,58.4994186 345.090988,59.3002907 L345.090988,74.6520349 C345.090988,75.1186047 344.711628,75.4979651 344.245058,75.4979651 L340.960174,75.4979651 C340.493605,75.4979651 340.115698,75.1186047 340.115698,74.6520349 L340.115698,50.3482558 C340.115698,49.881686 340.493605,49.5023256 340.960174,49.5023256 L344.447093,49.5023256 C344.70436,49.5023256 344.947093,49.6200581 345.106977,49.8206395 L358.173837,66.1665698 C358.67093,66.7915698 359.679651,66.4383721 359.679651,65.6389535 L359.679651,50.3482558 C359.679651,49.881686 360.056105,49.5023256 360.524128,49.5023256 L363.842442,49.5023256 C364.309012,49.5023256 364.688372,49.881686 364.688372,50.3482558" id="Fill-19" fill="#000000"></path>
                <path d="M403.353343,50.3482558 L403.353343,74.6520349 C403.353343,75.1186047 402.975436,75.4979651 402.508866,75.4979651 L399.155669,75.4979651 C398.689099,75.4979651 398.309738,75.1186047 398.309738,74.6520349 L398.309738,60.5546512 C398.309738,59.6287791 397.033576,59.3773256 396.681831,60.2348837 L390.657122,74.9718023 C390.526308,75.2901163 390.216715,75.4979651 389.875145,75.4979651 L388.386773,75.4979651 C388.04375,75.4979651 387.732703,75.2886628 387.603343,74.9703488 L381.61061,60.2276163 C381.261773,59.3686047 379.982703,59.6171512 379.982703,60.5459302 L379.982703,74.6520349 C379.982703,75.1186047 379.603343,75.4979651 379.136773,75.4979651 L375.785029,75.4979651 C375.318459,75.4979651 374.939099,75.1186047 374.939099,74.6520349 L374.939099,50.3482558 C374.939099,49.881686 375.318459,49.5023256 375.785029,49.5023256 L381.212355,49.5023256 C381.553924,49.5023256 381.862064,49.7087209 381.992878,50.0255814 L388.343169,65.4049419 C388.629506,66.1011628 389.614971,66.1026163 389.904215,65.4078488 L396.317006,50.0226744 C396.44782,49.7087209 396.755959,49.5023256 397.097529,49.5023256 L402.508866,49.5023256 C402.975436,49.5023256 403.353343,49.881686 403.353343,50.3482558" id="Fill-21" fill="#000000"></path>
                <path d="M418.666134,54.8329942 L418.666134,59.4550872 C418.666134,59.921657 419.045494,60.299564 419.512064,60.299564 L427.045494,60.299564 C427.512064,60.299564 427.889971,60.6774709 427.889971,61.1454942 L427.889971,63.8882267 C427.889971,64.3547965 427.512064,64.734157 427.045494,64.734157 L419.512064,64.734157 C419.045494,64.734157 418.666134,65.112064 418.666134,65.5800872 L418.666134,70.1672965 C418.666134,70.6338663 419.045494,71.0117733 419.512064,71.0117733 L428.296948,71.0117733 C428.763517,71.0117733 429.141424,71.3911337 429.141424,71.8577035 L429.141424,74.6513081 C429.141424,75.1193314 428.763517,75.4972384 428.296948,75.4972384 L414.467006,75.4972384 C414.00189,75.4972384 413.622529,75.1193314 413.622529,74.6513081 L413.622529,50.3489826 C413.622529,49.8809593 414.00189,49.5030523 414.467006,49.5030523 L428.296948,49.5030523 C428.763517,49.5030523 429.141424,49.8809593 429.141424,50.3489826 L429.141424,53.1425872 C429.141424,53.609157 428.763517,53.987064 428.296948,53.987064 L419.512064,53.987064 C419.045494,53.987064 418.666134,54.3664244 418.666134,54.8329942" id="Fill-23" fill="#000000"></path>
                <path d="M462.798837,50.3482558 L462.798837,74.6520349 C462.798837,75.1186047 462.419477,75.4979651 461.952907,75.4979651 L458.434012,75.4979651 C458.176744,75.4979651 457.932558,75.3802326 457.772674,75.1781977 L444.708721,58.7726744 C444.210174,58.1476744 443.202907,58.4994186 443.202907,59.3002907 L443.202907,74.6520349 C443.202907,75.1186047 442.823547,75.4979651 442.356977,75.4979651 L439.07064,75.4979651 C438.60407,75.4979651 438.226163,75.1186047 438.226163,74.6520349 L438.226163,50.3482558 C438.226163,49.881686 438.60407,49.5023256 439.07064,49.5023256 L442.557558,49.5023256 C442.814826,49.5023256 443.057558,49.6200581 443.217442,49.8206395 L456.284302,66.1665698 C456.781395,66.7915698 457.790116,66.4383721 457.790116,65.6389535 L457.790116,50.3482558 C457.790116,49.881686 458.16657,49.5023256 458.634593,49.5023256 L461.952907,49.5023256 C462.419477,49.5023256 462.798837,49.881686 462.798837,50.3482558" id="Fill-25" fill="#000000"></path>
                <g id="Group-29" transform="translate(469.476744, 49.418605)">
                    <mask id="mask-2" fill="white">
                        <use xlink:href="#path-1"></use>
                    </mask>
                    <g id="Clip-28"></g>
                    <path d="M18.7055233,4.56918605 L13.7098837,4.56918605 C13.243314,4.56918605 12.865407,4.94709302 12.865407,5.41511628 L12.865407,25.2334302 C12.865407,25.7 12.4875,26.0793605 12.0194767,26.0793605 L8.68372093,26.0793605 C8.21860465,26.0793605 7.83924419,25.7 7.83924419,25.2334302 L7.83924419,5.41511628 C7.83924419,4.94709302 7.46133721,4.56918605 6.99331395,4.56918605 L1.98313953,4.56918605 C1.51656977,4.56918605 1.1372093,4.19127907 1.1372093,3.72325581 L1.1372093,0.929651163 C1.1372093,0.463081395 1.51656977,0.0837209302 1.98313953,0.0837209302 L18.7055233,0.0837209302 C19.172093,0.0837209302 19.5514535,0.463081395 19.5514535,0.929651163 L19.5514535,3.72325581 C19.5514535,4.19127907 19.172093,4.56918605 18.7055233,4.56918605" id="Fill-27" fill="#000000" mask="url(#mask-2)"></path>
                </g>
                <path d="M205.538517,102.598692 C205.538517,100.213517 204.015262,98.5536337 201.103924,98.5536337 L196.635901,98.5536337 C196.169331,98.5536337 195.789971,98.9329942 195.789971,99.399564 L195.789971,105.748401 C195.789971,106.214971 196.169331,106.592878 196.635901,106.592878 L201.103924,106.592878 C204.015262,106.592878 205.538517,105.087064 205.538517,102.598692 M210.429506,102.651017 C210.429506,107.321076 207.079215,110.857413 201.865552,110.857413 L196.635901,110.857413 C196.169331,110.857413 195.789971,111.23532 195.789971,111.703343 L195.789971,119.45625 C195.789971,119.92282 195.412064,120.300727 194.945494,120.300727 L191.592297,120.300727 C191.124273,120.300727 190.746366,119.92282 190.746366,119.45625 L190.746366,95.1510174 C190.746366,94.6844477 191.124273,94.3065407 191.592297,94.3065407 L201.865552,94.3065407 C207.079215,94.3065407 210.429506,98.0478198 210.429506,102.651017" id="Fill-30" fill="#000000"></path>
                <path d="M223.642442,104.427616 C223.642442,104.894186 224.021802,105.273547 224.488372,105.273547 L228.414244,105.273547 C230.834302,105.273547 232.138081,104.036628 232.138081,101.955233 C232.138081,99.9072674 230.834302,98.5715116 228.414244,98.5715116 L224.488372,98.5715116 C224.021802,98.5715116 223.642442,98.9494186 223.642442,99.4159884 L223.642442,104.427616 Z M227.372093,109.317151 L224.488372,109.317151 C224.021802,109.317151 223.642442,109.696512 223.642442,110.163081 L223.642442,119.455233 C223.642442,119.923256 223.264535,120.301163 222.796512,120.301163 L219.443314,120.301163 C218.976744,120.301163 218.598837,119.923256 218.598837,119.455233 L218.598837,95.1514535 C218.598837,94.6848837 218.976744,94.3069767 219.443314,94.3069767 L228.752907,94.3069767 C234.100291,94.3069767 237.02907,97.7590116 237.02907,102.006105 C237.02907,104.849128 235.568314,107.132558 233.319767,108.352035 C232.901163,108.580233 232.75436,109.107849 232.997093,109.517733 L238.625,119.025 C238.959302,119.588953 238.552326,120.301163 237.898256,120.301163 L234.398256,120.301163 C234.088663,120.301163 233.805233,120.132558 233.656977,119.862209 L228.113372,109.756105 C227.965116,109.485756 227.680233,109.317151 227.372093,109.317151 Z" id="Fill-32" fill="#000000"></path>
                <path d="M266.879506,107.30407 C266.879506,102.413081 263.104797,98.6398256 258.215262,98.6398256 C253.341715,98.6398256 249.549564,102.413081 249.549564,107.30407 C249.549564,112.195058 253.341715,115.968314 258.215262,115.968314 C263.104797,115.968314 266.879506,112.195058 266.879506,107.30407 M244.489971,107.30407 C244.489971,99.7037791 250.412936,93.968314 258.215262,93.968314 C266.016134,93.968314 271.940552,99.7037791 271.940552,107.30407 C271.940552,114.902907 266.016134,120.639826 258.215262,120.639826 C250.412936,120.639826 244.489971,114.902907 244.489971,107.30407" id="Fill-34" fill="#000000"></path>
                <path d="M289.096948,115.815698 C294.61439,115.815698 297.287355,112.80407 297.287355,107.30407 C297.287355,101.802616 294.61439,98.7924419 289.096948,98.7924419 L286.285901,98.7924419 C285.819331,98.7924419 285.439971,99.1703488 285.439971,99.6369186 L285.439971,114.969767 C285.439971,115.437791 285.819331,115.815698 286.285901,115.815698 L289.096948,115.815698 Z M280.415262,95.1514535 C280.415262,94.6848837 280.793169,94.3069767 281.259738,94.3069767 L289.314971,94.3069767 C297.948692,94.3069767 302.515552,99.4334302 302.515552,107.30407 C302.515552,115.173256 297.948692,120.301163 289.314971,120.301163 L281.259738,120.301163 C280.793169,120.301163 280.415262,119.923256 280.415262,119.455233 L280.415262,95.1514535 Z" id="Fill-36" fill="#000000"></path>
                <path d="M310.621076,111.297674 L310.621076,95.1523256 C310.621076,94.6843023 310.998983,94.3063953 311.465552,94.3063953 L314.81875,94.3063953 C315.28532,94.3063953 315.66468,94.6843023 315.66468,95.1523256 L315.66468,110.518605 C315.66468,114.665407 318.049855,116.172674 321.182122,116.172674 C324.328924,116.172674 326.714099,114.665407 326.714099,110.518605 L326.714099,95.1523256 C326.714099,94.6843023 327.093459,94.3063953 327.560029,94.3063953 L330.930669,94.3063953 C331.397238,94.3063953 331.775145,94.6843023 331.775145,95.1523256 L331.775145,111.297674 C331.775145,117.50843 327.205378,120.639244 321.182122,120.639244 C315.190843,120.639244 310.621076,117.50843 310.621076,111.297674" id="Fill-38" fill="#000000"></path>
                <path d="M339.725,107.30407 C339.725,99.7037791 345.630523,93.968314 353.448837,93.968314 C356.963372,93.968314 360.310756,95.2735465 362.72064,97.4 C363.098547,97.7328488 363.114535,98.3171512 362.746802,98.6616279 L360.424128,100.840407 C360.10436,101.138372 359.611628,101.147093 359.2875,100.852035 C357.755523,99.456686 355.663953,98.6398256 353.448837,98.6398256 C348.557849,98.6398256 344.784593,102.39564 344.784593,107.30407 C344.784593,112.211047 348.557849,115.968314 353.448837,115.968314 C355.663953,115.968314 357.755523,115.151453 359.2875,113.754651 C359.611628,113.461047 360.10436,113.468314 360.424128,113.767733 L362.746802,115.946512 C363.114535,116.290988 363.098547,116.875291 362.72064,117.20814 C360.310756,119.33314 356.963372,120.639826 353.448837,120.639826 C345.630523,120.639826 339.725,114.902907 339.725,107.30407" id="Fill-40" fill="#000000"></path>
                <path d="M386.362936,98.7917151 L381.36875,98.7917151 C380.90218,98.7917151 380.524273,99.1696221 380.524273,99.6376453 L380.524273,119.455959 C380.524273,119.922529 380.146366,120.300436 379.678343,120.300436 L376.342587,120.300436 C375.876017,120.300436 375.496657,119.922529 375.496657,119.455959 L375.496657,99.6376453 C375.496657,99.1696221 375.120203,98.7917151 374.65218,98.7917151 L369.640552,98.7917151 C369.173983,98.7917151 368.796076,98.4123547 368.796076,97.9457849 L368.796076,95.1521802 C368.796076,94.684157 369.173983,94.30625 369.640552,94.30625 L386.362936,94.30625 C386.829506,94.30625 387.208866,94.684157 387.208866,95.1521802 L387.208866,97.9457849 C387.208866,98.4123547 386.829506,98.7917151 386.362936,98.7917151" id="Fill-42" fill="#000000"></path>
                <path d="M393.32093,115.89375 L395.150872,113.608866 C395.459012,113.222238 396.031686,113.182994 396.387791,113.527471 C398.134884,115.213517 400.543314,116.357413 402.65814,116.357413 C404.688663,116.357413 406.161047,115.309448 406.161047,113.463517 C406.161047,111.145203 403.842733,110.281831 400.880523,108.979506 C397.47936,107.48968 393.892151,105.79782 393.892151,101.21061 C393.892151,96.6074128 397.47936,93.9678779 401.9125,93.9678779 C404.84564,93.9678779 407.607267,95.0638081 409.873256,96.8763081 C410.22064,97.1539244 410.271512,97.6640988 410.006977,98.0231105 L408.370349,100.245494 C408.085465,100.629215 407.534593,100.709157 407.16686,100.405378 C405.419767,98.95625 403.447384,98.2498547 401.794767,98.2498547 C400.152326,98.2498547 398.851453,99.0797965 398.851453,100.703343 C398.851453,102.818169 401.084012,103.64811 404.079651,104.934448 C407.498256,106.441715 411.204651,108.30218 411.204651,113.142297 C411.204651,118.117587 407.278779,120.621948 402.640698,120.621948 C399.296221,120.621948 395.865988,119.280378 393.428488,117.062355 C393.092733,116.757122 393.0375,116.248401 393.32093,115.89375" id="Fill-44" fill="#000000"></path>
                <g id="Group-48">
                    <mask id="mask-4" fill="white">
                        <use xlink:href="#path-3"></use>
                    </mask>
                    <g id="Clip-47"></g>
                    <path d="M44.2409884,111.748256 C45.0840116,110.288953 44.6508721,108.422674 43.2424419,107.499709 C28.5840116,97.8936047 18.8950581,81.3340116 18.8950581,62.4997093 C18.8950581,43.6668605 28.5840116,27.105814 43.2424419,17.5011628 C44.6508721,16.5767442 45.0840116,14.7104651 44.2409884,13.2511628 L37.9837209,2.41395349 C37.0651163,0.822383721 35.0026163,0.336918605 33.4575581,1.32965116 C13.3383721,14.2526163 -0.000290697674,36.8122093 -0.000290697674,62.4997093 C-0.000290697674,88.1886628 13.3383721,110.746802 33.4575581,123.669767 C35.0026163,124.6625 37.0651163,124.177035 37.9837209,122.586919 L44.2409884,111.748256 Z" id="Fill-46" fill="#276EF1" mask="url(#mask-4)"></path>
                </g>
                <path d="M107.365552,2.41366279 L101.108285,13.2523256 C100.265262,14.7101744 100.698401,16.577907 102.106831,17.5008721 C116.765262,27.1055233 126.452762,43.6665698 126.452762,62.4994186 C126.452762,81.3337209 116.765262,97.893314 102.106831,107.499419 C100.698401,108.422384 100.265262,110.288663 101.108285,111.747965 L107.365552,122.586628 C108.284157,124.176744 110.346657,124.662209 111.891715,123.669477 C132.010901,110.746512 145.34811,88.1883721 145.34811,62.4994186 C145.34811,36.8119186 132.010901,14.2537791 111.891715,1.32936047 C110.346657,0.336627907 108.284157,0.822093023 107.365552,2.41366279" id="Fill-49" fill="#276EF1"></path>
            </g>
        </g>
    </g>
</svg>