<svg width="19" height="19" viewBox="0 0 19 19" fill="none" xmlns="http://www.w3.org/2000/svg">
<path d="M8.00015 16C9.84615 16 11.5432 15.365 12.8972 14.312L17.2932 18.708L18.7072 17.294L14.3112 12.898C15.3652 11.543 16.0002 9.846 16.0002 8C16.0002 3.589 12.4112 0 8.00015 0C3.58915 0 0.000152588 3.589 0.000152588 8C0.000152588 12.411 3.58915 16 8.00015 16ZM8.00015 2C11.3092 2 14.0002 4.691 14.0002 8C14.0002 11.309 11.3092 14 8.00015 14C4.69115 14 2.00015 11.309 2.00015 8C2.00015 4.691 4.69115 2 8.00015 2Z" fill="#445072"/>
</svg>
