<svg width="104" height="104" fill="none" xmlns="http://www.w3.org/2000/svg"><style>@media (prefers-color-scheme:dark){.a{fill:#fff}}</style><path class="a" fill="#000" d="M67.876 33.255a35.543 35.543 0 0 0-1.905-.581 31.97 31.97 0 0 0-4.314-.762 29.619 29.619 0 0 0-3.181-.162h-1.4a30.677 30.677 0 0 0-29.324 31.067v1.038a1.428 1.428 0 0 1-1.905 1.42 41.847 41.847 0 0 1-13.4-7.934 1.429 1.429 0 0 1 1.38-2.41c2.78.781 5.717.8 8.506.057a.952.952 0 0 0 .571-1.343A25.981 25.981 0 0 1 39.21 15.788a26.171 26.171 0 0 1 7.543-.762A26.008 26.008 0 0 1 67.038 26.36a25.227 25.227 0 0 1 2.628 5.019 1.438 1.438 0 0 1-1.79 1.904v-.028z"/><path d="M81.688 76.4a.954.954 0 0 1-.572-1.342 25.973 25.973 0 0 0-16.333-37.81 25.962 25.962 0 0 0-27.82 10.562A25.952 25.952 0 0 0 49.85 86.925 42.02 42.02 0 0 0 91.526 78.8a1.439 1.439 0 0 0-1.334-2.457 16.01 16.01 0 0 1-8.504.057z" fill="#EF4D5A"/></svg>